<svg width="157" height="70" viewBox="0 0 157 70" fill="none" xmlns="http://www.w3.org/2000/svg">
<g clip-path="url(#clip0_279_1816)">
<path d="M31.9999 0C32.1052 0.0528108 32.1915 0.136926 32.247 0.240784C32.3025 0.344642 32.3245 0.463143 32.3099 0.58C32.3099 1.58 32.2599 2.58 32.2199 3.58C32.1199 5.74 31.9799 7.9 31.7399 10.06C31.5299 12 31.2799 14 30.9999 15.89C30.7199 17.78 30.1999 19.89 29.6799 21.89C28.8136 25.1143 27.7174 28.2723 26.3999 31.34C26.3999 31.39 26.3399 31.43 26.3199 31.48C26.2333 31.515 26.1365 31.515 26.0499 31.48C24.9699 31.29 23.8799 31.11 22.7999 30.91C22.6839 30.9073 22.5732 30.8609 22.4899 30.78C22.4782 30.7231 22.4783 30.6645 22.4903 30.6077C22.5024 30.5509 22.5261 30.4972 22.5599 30.45C23.5842 28.2387 24.4562 25.9601 25.1699 23.63C25.9428 21.1082 26.554 18.5396 26.9999 15.94C27.3099 14.25 27.5399 12.55 27.7499 10.84C27.8799 9.78 27.9699 8.72 28.0499 7.65L28.2999 5C28.2999 4.65 28.2999 4.31 28.3499 4C28.3499 2.87 28.4699 1.74 28.4499 0.61C28.4499 0.23 28.5299 0.1 28.8299 0L31.9999 0Z" fill="#00FE88"/>
<path d="M17.29 28.2C17.68 27.26 18.1 26.33 18.46 25.38C19.5191 22.6043 20.3682 19.7529 21 16.85C21.4067 14.8967 21.74 12.9333 22 10.96C22.26 8.98667 22.4467 6.95 22.56 4.85C22.64 3.4 22.75 1.96 22.72 0.51C22.7155 0.407498 22.7392 0.305722 22.7886 0.215784C22.838 0.125845 22.9111 0.051201 23 0L26.21 0C26.307 0.0600605 26.3849 0.146521 26.4345 0.249247C26.484 0.351973 26.5033 0.466707 26.49 0.58C26.44 2.93 26.34 5.29 26.13 7.64C26.01 8.97 25.89 10.31 25.71 11.64C25.414 14.0482 24.9867 16.4384 24.43 18.8C23.6221 22.2203 22.5248 25.5657 21.15 28.8C21.15 28.85 21.1 28.89 21.08 28.94C21.0342 28.9595 20.9849 28.9696 20.935 28.9696C20.8852 28.9696 20.8359 28.9595 20.79 28.94C19.72 28.75 18.65 28.57 17.59 28.37C17.4718 28.3544 17.3642 28.2934 17.29 28.2Z" fill="#00FE88"/>
<path d="M20.4501 0C20.5469 0.0761805 20.6226 0.17595 20.6699 0.289759C20.7172 0.403568 20.7345 0.527606 20.7201 0.65C20.7201 2.11 20.6001 3.56 20.5401 5.02C20.3005 10.848 19.2608 16.6153 17.4501 22.16C16.9634 23.7067 16.3967 25.2267 15.7501 26.72C15.7501 26.81 15.6701 26.88 15.6301 26.97C15.5589 26.9952 15.4813 26.9952 15.4101 26.97C14.2101 26.78 13.0301 26.49 11.8301 26.29C12.2701 25.24 12.7401 24.19 13.1501 23.13C14.3928 19.9888 15.3239 16.7332 15.9301 13.41C16.1714 11.95 16.3316 10.4777 16.4101 9C16.4801 8.15 16.5801 7.3 16.6501 6.45C16.7201 5.6 16.7701 4.64 16.8201 3.73C16.8701 2.82 16.9401 2.08 16.9401 1.24C16.9401 1.01 16.9401 0.77 16.9401 0.53C16.9336 0.422131 16.9585 0.314695 17.0117 0.220653C17.065 0.126611 17.1443 0.0499785 17.2401 0L20.4501 0Z" fill="#00FE88"/>
<path d="M3.17 48.3001L3 49.0001C2.96061 49.0174 2.91804 49.0264 2.875 49.0264C2.83196 49.0264 2.78939 49.0174 2.75 49.0001L0.17 48.5901C0.10823 48.5819 0.0496531 48.5577 0 48.5201L0 47.7401C0 47.7401 0 47.6301 0.08 47.6101C0.249021 47.5954 0.419255 47.6158 0.58 47.6701C1.36 47.7968 2.14 47.9368 2.92 48.0901C3 48.1101 3.2 48.0901 3.17 48.3001Z" fill="#00B162"/>
<path d="M2.84001 49.67L2.71001 50.73C2.67148 50.6647 2.6177 50.6096 2.55327 50.5696C2.48884 50.5295 2.41567 50.5056 2.34001 50.5L0.34001 50.15C0.270769 50.1479 0.204097 50.1233 0.15001 50.08C0.0600098 49.86 0.15001 49.61 0.0100098 49.39V49.16C0.0900098 49.09 0.18001 49.16 0.27001 49.16C1.08001 49.28 1.88001 49.45 2.69001 49.58C2.75001 49.57 2.84001 49.56 2.84001 49.67Z" fill="#00AA5F"/>
<path d="M2.84 49.67C2.53196 49.5851 2.21763 49.5249 1.9 49.49C1.27 49.37 0.63 49.27 0 49.16V48.52C0.42 48.52 0.82 48.65 1.23 48.71C1.82 48.8 2.39 48.92 2.98 49.02C2.94877 49.2397 2.90199 49.4569 2.84 49.67V49.67Z" fill="#00AE61"/>
<path d="M0.05 47.65C0.05 47.65 0.05 47.72 0.05 47.74V47.46H0C0.0316091 47.4787 0.0545701 47.5092 0.0639251 47.5447C0.07328 47.5803 0.0682783 47.6181 0.05 47.65V47.65Z" fill="#9EE2C4"/>
<path d="M28.15 60H44.87C45.3 60 45.43 60.13 45.43 60.56V63.29C45.43 63.62 45.28 63.77 44.96 63.77H24.07C24 63.63 24.12 63.57 24.19 63.51L25.54 62.31C26.16 61.77 26.78 61.23 27.39 60.68C27.6209 60.4294 27.8754 60.2017 28.15 60V60Z" fill="#00FE88"/>
<path d="M28.7 54.17H44.88C44.9391 54.1686 44.9977 54.1793 45.0524 54.2016C45.1071 54.2238 45.1567 54.2571 45.198 54.2993C45.2392 54.3415 45.2714 54.3918 45.2924 54.447C45.3134 54.5022 45.3228 54.5611 45.32 54.6201V57.5001C45.3261 57.5598 45.3189 57.6201 45.2991 57.6768C45.2793 57.7334 45.2472 57.785 45.2053 57.8279C45.1633 57.8709 45.1124 57.9041 45.0562 57.9251C45 57.9462 44.9399 57.9547 44.88 57.9501H12.11C12.1056 57.9407 12.1033 57.9304 12.1033 57.92C12.1033 57.9097 12.1056 57.8994 12.11 57.8901C12.2258 57.8695 12.3443 57.8695 12.46 57.8901H21.76C22.47 57.8901 23.18 57.8901 23.89 57.8901C23.9812 57.8894 24.0694 57.8577 24.14 57.8001C25.53 56.6501 26.95 55.5401 28.36 54.4101C28.4531 54.3046 28.5695 54.2224 28.7 54.17V54.17Z" fill="#00FE88"/>
<path d="M30.39 65.8101H44.8C45.26 65.8101 45.38 65.9301 45.38 66.3901V69.0001C45.38 69.3601 45.22 69.5301 44.87 69.5301H26.77C26.69 69.4301 26.77 69.3601 26.83 69.2901C27.15 68.9501 27.52 68.6401 27.83 68.2901C28.14 67.9401 28.32 67.8501 28.52 67.5901C28.72 67.3301 28.85 67.2701 29.01 67.1101C29.48 66.7101 29.91 66.2301 30.39 65.8101Z" fill="#00FE88"/>
<path d="M19.53 36.5001C19.85 35.9201 20.17 35.3501 20.48 34.7601C21.15 33.5201 21.79 32.2601 22.37 30.9701C22.3906 30.9139 22.4175 30.8602 22.45 30.8101C22.8735 30.9264 23.3045 31.0133 23.74 31.0701L26.27 31.5101C25.84 32.4201 25.42 33.3501 24.97 34.2601C24.52 35.1701 24.07 36.1101 23.56 37.0001C23.5193 37.0802 23.4725 37.1571 23.42 37.2301C22.21 37.0001 20.98 36.8101 19.77 36.5701C19.6848 36.5716 19.6011 36.5472 19.53 36.5001Z" fill="#00FB86"/>
<path d="M19.5301 36.5C19.8915 36.5145 20.2502 36.5681 20.6001 36.66C21.4501 36.79 22.3101 36.95 23.1601 37.11C23.2501 37.11 23.3801 37.11 23.4201 37.23C23.0001 38.11 22.4801 39 22.0001 39.8C21.3501 39.67 20.6901 39.59 20.0001 39.42C19.3101 39.25 18.9201 39.24 18.3801 39.13C18.2701 39.13 18.1301 39.13 18.0701 38.98L19.5301 36.5Z" fill="#00F684"/>
<path d="M28.6999 54.1699C28.3265 54.53 27.9289 54.8641 27.5099 55.1699C26.7899 55.7599 26.0499 56.3299 25.3299 56.9199C24.921 57.2305 24.5304 57.5644 24.1599 57.9199C24.1599 57.9199 24.0499 57.9199 23.9899 57.9199H21.8699C21.8099 57.8099 21.8699 57.7599 21.9699 57.6999C22.3299 57.3799 22.7199 57.0999 23.0899 56.7999C24.1899 55.9299 25.2699 55.0499 26.3599 54.1799L28.6999 54.1699Z" fill="#00FC87"/>
<path d="M15.6001 42.8299L16.8401 40.9099C17.1511 40.9131 17.4604 40.9568 17.7601 41.0399C18.6501 41.1799 19.5501 41.3399 20.4401 41.4999C20.5146 41.5152 20.5881 41.5353 20.6601 41.5599C20.7401 41.5599 20.8201 41.6299 20.7701 41.7399C20.4101 42.3899 20.0001 43.0099 19.5801 43.6199C18.4001 43.3799 17.2201 43.1999 16.0001 42.9999C15.8901 42.9999 15.7201 42.9999 15.6001 42.8299Z" fill="#00F081"/>
<path d="M15.5999 42.8301L19.4199 43.5201C19.4899 43.5201 19.5699 43.5201 19.5799 43.6201C19.1799 44.2501 18.7699 44.8801 18.3299 45.4901C17.6199 45.3801 16.9099 45.2401 16.1999 45.1101C15.7399 45.0401 15.2799 44.9601 14.8299 44.8701C14.7447 44.8668 14.661 44.8466 14.5837 44.8105C14.5064 44.7744 14.4371 44.7233 14.3799 44.6601C14.7699 44.0001 15.1799 43.4301 15.5999 42.8301Z" fill="#00EB7F"/>
<path d="M20.7701 41.74C20.6901 41.52 20.4701 41.58 20.3201 41.56C19.1901 41.34 18.0601 41.15 16.9201 40.95H16.8401L18.0701 39C18.5303 39.1207 18.998 39.2109 19.4701 39.27C20.2601 39.44 21.0401 39.61 21.8301 39.73C21.8572 39.7341 21.883 39.7444 21.9055 39.76C21.928 39.7756 21.9467 39.7961 21.9601 39.82C21.5801 40.46 21.1901 41.11 20.7701 41.74Z" fill="#00F283"/>
<path d="M14.38 44.6599C15.1212 44.8678 15.8765 45.0216 16.64 45.1199L18.15 45.3999C18.1847 45.401 18.2188 45.4096 18.2499 45.4251C18.2809 45.4407 18.3083 45.4628 18.33 45.4899C17.9942 46.0351 17.6304 46.5625 17.24 47.0699C16.02 46.7899 14.77 46.6199 13.54 46.3899C13.43 46.3899 13.31 46.3899 13.23 46.2699L14.38 44.6599Z" fill="#00E67D"/>
<path d="M30.3899 65.81C30.1899 66.1014 29.9472 66.361 29.6699 66.58C29.4699 66.78 29.2599 66.97 29.0699 67.17C28.7099 67.56 28.3099 67.91 27.9599 68.3C27.6099 68.69 27.2499 68.99 26.8999 69.3C26.8299 69.36 26.7599 69.42 26.7699 69.53H25.1699C25.1699 69.41 25.1699 69.34 25.2899 69.28C26.0399 68.51 26.7899 67.74 27.5699 67C27.9999 66.6 28.3999 66.17 28.8299 65.78L30.3899 65.81Z" fill="#00FB86"/>
<path d="M28.15 60C27.72 60.48 27.21 60.87 26.75 61.31C26.46 61.58 26.14 61.83 25.84 62.1L24.32 63.44C24.22 63.53 24.09 63.6 24.07 63.75H22.51C22.45 63.66 22.51 63.61 22.57 63.56C23.25 62.98 23.91 62.39 24.57 61.8C25.23 61.21 25.8 60.73 26.4 60.18C26.4649 60.1064 26.5429 60.0454 26.63 60H28.15Z" fill="#00F785"/>
<path d="M13.2301 46.27L16.8201 46.9C16.9701 46.9 17.1501 46.9 17.2401 47.07L16.4601 48.2C16.3718 48.2248 16.2784 48.2248 16.1901 48.2C14.9901 47.99 13.7901 47.76 12.5901 47.57C12.5053 47.5631 12.4265 47.5237 12.3701 47.46L13.2301 46.27Z" fill="#00E27B"/>
<path d="M12.3699 47.46L15.9999 48.1C16.1733 48.1129 16.3445 48.1465 16.5099 48.2C16.2789 48.5982 16.0146 48.9763 15.7199 49.33C15.5135 49.3373 15.3074 49.3103 15.1099 49.25L11.9799 48.7C11.8599 48.7 11.7299 48.7 11.6499 48.57C11.8696 48.1872 12.11 47.8166 12.3699 47.46Z" fill="#00E079"/>
<path d="M26.36 54.1699C26.1904 54.403 25.9763 54.6001 25.73 54.7499L23.48 56.5599C23.1 56.8599 22.71 57.1499 22.33 57.4599C22.17 57.5999 21.96 57.6999 21.87 57.9099H20.49C20.49 57.7299 20.64 57.6699 20.74 57.5899L22.46 56.2199L25.03 54.2199L26.36 54.1699Z" fill="#00F785"/>
<path d="M10.26 50.58C10.4706 50.2337 10.701 49.8998 10.95 49.58C10.9934 49.5581 11.0414 49.5466 11.09 49.5466C11.1387 49.5466 11.1866 49.5581 11.23 49.58L14.67 50.19C14.79 50.19 14.96 50.19 14.99 50.38L14.22 51.5C13.831 51.3309 13.4204 51.2165 13 51.16C12.2 51.01 11.4 50.86 10.59 50.73C10.47 50.71 10.34 50.7 10.26 50.58Z" fill="#00D976"/>
<path d="M10.2601 50.5801C10.9901 50.7701 11.7401 50.8501 12.4901 50.9901L14.0301 51.2701C14.1301 51.2701 14.2101 51.2701 14.2201 51.4201C14.0301 51.7401 13.8301 52.0401 13.6201 52.3301C13.2832 52.3142 12.9484 52.2674 12.6201 52.1901L9.91012 51.7101C9.80012 51.7101 9.69012 51.7101 9.62012 51.5901C9.80831 51.2381 10.0222 50.9005 10.2601 50.5801Z" fill="#00D474"/>
<path d="M15 50.3C14.94 50.18 14.81 50.2 14.72 50.18L11.72 49.67L11 49.53C11.1955 49.1834 11.4126 48.8494 11.65 48.53L13.91 48.94L15.49 49.21L15.72 49.29C15.5052 49.644 15.2645 49.9815 15 50.3V50.3Z" fill="#00DC78"/>
<path d="M28.8299 65.81C28.8299 65.92 28.7299 65.98 28.6599 66.04C27.5533 67.1267 26.4566 68.21 25.3699 69.29C25.284 69.364 25.2156 69.4562 25.1699 69.56H23.9999C23.9399 69.42 24.0599 69.37 24.1299 69.3C24.5999 68.84 25.0599 68.36 25.5499 67.9C26.2299 67.27 26.8699 66.61 27.5499 65.9C27.5897 65.8435 27.6408 65.7958 27.6999 65.76L28.8299 65.81Z" fill="#00F684"/>
<path d="M10 59.11L9.77002 60C9.78746 60.0809 9.7817 60.1652 9.7534 60.243C9.72509 60.3208 9.67539 60.3891 9.61002 60.44C9.19321 60.4019 8.77911 60.3384 8.37002 60.25C7.85002 60.17 7.37002 60.05 6.81002 59.95C6.72459 59.9509 6.64214 59.9186 6.58002 59.86C6.51011 59.4731 6.51011 59.0768 6.58002 58.69C6.58301 58.6638 6.59173 58.6385 6.60555 58.6161C6.61938 58.5936 6.63797 58.5744 6.66002 58.56C6.74661 58.5249 6.84342 58.5249 6.93002 58.56L9.74002 59.06C9.82984 59.0466 9.92154 59.0643 10 59.11V59.11Z" fill="#00B463"/>
<path d="M9.63011 51.5901L12.9201 52.1801C13.159 52.1991 13.3944 52.2496 13.6201 52.3301C13.4521 52.6295 13.2686 52.9199 13.0701 53.2001C12.9295 53.2398 12.7807 53.2398 12.6401 53.2001L9.47011 52.6301C9.34011 52.6301 9.20011 52.6301 9.11011 52.5001C9.26254 52.1853 9.43628 51.8812 9.63011 51.5901Z" fill="#00D172"/>
<path d="M8.19995 54.1601L8.67995 53.2501C8.75113 53.2249 8.82878 53.2249 8.89995 53.2501L12.23 53.8301C12.35 53.8301 12.54 53.8301 12.56 54.0301V54.1601C12.4778 54.4416 12.3185 54.6945 12.1 54.8901C11.68 54.8901 11.26 54.7501 10.84 54.6701L8.55995 54.2701C8.43064 54.2778 8.30287 54.2387 8.19995 54.1601V54.1601Z" fill="#00CB6F"/>
<path d="M12.5599 54C12.5599 53.91 12.4499 53.91 12.3799 53.9L8.99993 53.33L8.67993 53.25C8.80522 52.9772 8.94888 52.7133 9.10993 52.46C10.2799 52.67 11.4399 52.89 12.6099 53.09C12.7663 53.1124 12.9203 53.1492 13.0699 53.2C12.9145 53.4756 12.7442 53.7427 12.5599 54V54Z" fill="#00CE71"/>
<path d="M3.69995 57C3.61348 56.7557 3.5466 56.5049 3.49995 56.25C3.48944 56.1575 3.45108 56.0703 3.38995 56C3.38995 55.84 3.27995 55.69 3.38995 55.53C3.84995 55.53 4.30995 55.68 4.76995 55.76L5.76995 55.95C5.86355 55.954 5.95393 55.9853 6.02995 56.04C6.07012 56.1429 6.07012 56.2571 6.02995 56.36C5.95995 56.57 6.02995 56.79 6.02995 57C6.02995 57.21 6.02995 57.24 5.94995 57.34C5.87947 57.3689 5.80044 57.3689 5.72995 57.34L3.84995 57C3.80023 57.0074 3.74968 57.0074 3.69995 57V57Z" fill="#00AB5F"/>
<path d="M27.69 65.8101C27.6451 65.9089 27.5805 65.9974 27.5 66.0701C26.88 66.6801 26.29 67.3101 25.65 67.9101C25.01 68.5101 24.65 68.9101 24.16 69.3601C24.1 69.4201 24.02 69.4601 24.02 69.5601H23.2C23.2 69.4001 23.2899 69.3301 23.3799 69.2401C24.2699 68.3201 25.23 67.4701 26.12 66.5501C26.36 66.3001 26.6 66.0501 26.86 65.8101H27.69Z" fill="#00EF81"/>
<path d="M26.8601 65.8101C26.8601 65.9101 26.7801 65.9501 26.7301 66.0101C26.0701 66.6701 25.4401 67.3401 24.7301 68.0101C24.2601 68.4401 23.8201 68.9001 23.3601 69.3501C23.2778 69.4172 23.2127 69.5029 23.1701 69.6001H22.3401C22.3401 69.4301 22.4501 69.3601 22.5401 69.2701C23.6401 68.2001 24.7401 67.1501 25.8201 66.0701L26.0501 65.8501L26.8601 65.8101Z" fill="#00E97E"/>
<path d="M6.8299 62.14L6.7299 61.88C6.62214 61.628 6.58748 61.3508 6.6299 61.08C6.66297 61.0654 6.69874 61.0579 6.7349 61.0579C6.77105 61.0579 6.80682 61.0654 6.8399 61.08L9.2599 61.51C9.31399 61.5177 9.36544 61.5382 9.40989 61.57C9.50989 61.8 9.40989 62.03 9.40989 62.26C9.40989 62.49 9.40989 62.5 9.31989 62.6C9.27933 62.6195 9.2349 62.6296 9.18989 62.6296C9.14489 62.6296 9.10046 62.6195 9.0599 62.6L7.0599 62.25C6.97423 62.2363 6.89435 62.1981 6.8299 62.14V62.14Z" fill="#00AA5E"/>
<path d="M24.8001 60H25.4901C25.4901 60.11 25.4901 60.18 25.3801 60.24C24.8201 60.72 24.2801 61.24 23.7201 61.7L22.3001 63C22.0031 63.2822 21.6892 63.546 21.3601 63.79H20.6701C20.6201 63.6 20.7801 63.53 20.8801 63.45C21.5401 62.9 22.1501 62.31 22.8201 61.77C23.4901 61.23 24.1301 60.55 24.8001 60Z" fill="#00E87E"/>
<path d="M26.0799 65.81C26.0799 65.92 25.9899 65.97 25.9299 66.03L23.4199 68.5L22.5599 69.31C22.4777 69.3771 22.4126 69.4628 22.3699 69.56H21.7299C21.6699 69.46 21.7299 69.4 21.8099 69.35C22.4699 68.69 23.1099 68.02 23.8099 67.35C24.2099 66.97 24.5899 66.57 24.9799 66.19L25.3799 65.78L26.0799 65.81Z" fill="#00E27A"/>
<path d="M17.19 63.74H16.5C16.44 63.65 16.5 63.6 16.58 63.56L19 61.45C19.56 60.96 20.09 60.45 20.67 59.99H21.35C21.35 60.09 21.35 60.14 21.25 60.2C20.79 60.63 20.31 61.04 19.83 61.45C19.35 61.86 18.83 62.4 18.27 62.85C17.9268 63.1665 17.5663 63.4637 17.19 63.74V63.74Z" fill="#00BB67"/>
<path d="M23.4701 60H24.1601C24.1601 60.1 24.1601 60.16 24.0601 60.21L21.6501 62.34C21.1701 62.76 20.6501 63.17 20.2401 63.61C20.1763 63.6653 20.1057 63.7124 20.0301 63.75H19.3501C19.3501 63.55 19.5301 63.46 19.6601 63.35L21.9401 61.35C22.4501 60.88 23.0001 60.43 23.4701 60Z" fill="#00DE78"/>
<path d="M16.41 57.9099H15.73C15.73 57.7799 15.82 57.7299 15.9 57.6699C17.06 56.7299 18.22 55.7999 19.38 54.8799C19.672 54.6206 19.9828 54.3832 20.31 54.1699H21C21.06 54.3099 20.94 54.3599 20.87 54.4199C19.96 55.1399 19.05 55.8599 18.15 56.5899C17.64 56.9999 17.15 57.3999 16.62 57.8199C16.5545 57.8595 16.4838 57.8897 16.41 57.9099V57.9099Z" fill="#00D071"/>
<path d="M3.69995 57C4.11972 57.0456 4.53692 57.1123 4.94995 57.2C5.27995 57.2724 5.61383 57.3258 5.94995 57.36C6.01099 57.4456 6.04888 57.5455 6.05995 57.65C6.03997 57.8996 6.03997 58.1504 6.05995 58.4C6.05995 58.49 6.05995 58.57 6.05995 58.64C5.63995 58.64 5.23995 58.52 4.82995 58.46L4.21995 58.37C3.99841 57.9331 3.82409 57.4739 3.69995 57V57Z" fill="#00A35B"/>
<path d="M12.0999 57.9299C11.6499 57.9299 11.1999 57.9299 10.7599 57.9299C10.5599 57.9299 10.4499 57.9299 10.3999 58.1699C10.3499 58.4099 10.3099 58.3599 10.2699 58.4599C10.1824 58.4896 10.0875 58.4896 9.99991 58.4599L7.11991 57.9999C7.02991 57.9999 6.91991 57.9999 6.84991 57.8999C6.81683 57.6626 6.87006 57.4213 6.99991 57.2199C6.99377 57.2004 6.99377 57.1795 6.99991 57.1599C7.08821 57.1352 7.18161 57.1352 7.26991 57.1599C8.26991 57.3299 9.31991 57.5899 10.3599 57.7499L10.5099 57.8099C10.6799 57.9399 10.8699 57.8099 11.0599 57.8799H11.9999C12.0379 57.8848 12.0732 57.9025 12.0999 57.9299V57.9299Z" fill="#00BA67"/>
<path d="M20.3101 54.1699C20.0138 54.4427 19.7034 54.6997 19.3801 54.9399C18.8001 55.4199 18.2001 55.9399 17.6101 56.3699L16.2301 57.4599C16.0429 57.5854 15.8745 57.7369 15.7301 57.9099H15.0801C15.0201 57.7899 15.1301 57.7499 15.1901 57.6999C15.6501 57.3099 16.1301 56.9399 16.5901 56.5499C17.0501 56.1599 17.8101 55.6499 18.3901 55.1699C18.7601 54.8599 19.1501 54.5799 19.5101 54.2599C19.5554 54.2228 19.606 54.1924 19.6601 54.1699H20.3101Z" fill="#00C76D"/>
<path d="M0.139893 50.0801C0.679893 50.0801 1.19989 50.2501 1.72989 50.3301L2.42989 50.4501C2.58989 50.4501 2.74989 50.4501 2.70989 50.7301C2.70989 51.2601 2.70989 51.7901 2.70989 52.3201C2.56989 52.2601 2.61989 52.1301 2.60989 52.0301C2.60989 51.5001 2.70989 51.5401 2.10989 51.4301L0.599893 51.1701C0.516775 51.168 0.436381 51.14 0.369893 51.0901C0.259079 50.7621 0.182013 50.4237 0.139893 50.0801V50.0801Z" fill="#00A55C"/>
<path d="M0.370117 51.0901C0.790327 51.1323 1.20771 51.1991 1.62012 51.2901C1.92012 51.2901 2.21012 51.4001 2.51012 51.4501C2.64012 51.4501 2.66012 51.5201 2.66012 51.6201C2.62997 51.8524 2.62997 52.0877 2.66012 52.3201L2.71012 52.8301C2.5688 52.717 2.39944 52.6445 2.22012 52.6201C1.82012 52.5301 1.41012 52.4601 1.00012 52.4001C0.922777 52.392 0.847908 52.3682 0.780117 52.3301C0.599469 51.9326 0.462015 51.5169 0.370117 51.0901V51.0901Z" fill="#009E59"/>
<path d="M6.88008 57.8301C7.27008 57.9401 7.67008 57.9801 8.07008 58.0601C8.81008 58.2101 9.55008 58.2901 10.2801 58.4801L10.0401 59.1101L8.81008 58.9101L6.72008 58.5601C6.70295 58.5224 6.69409 58.4815 6.69409 58.4401C6.69409 58.3987 6.70295 58.3578 6.72008 58.3201C6.7399 58.154 6.7399 57.9862 6.72008 57.8201C6.73103 57.8098 6.74397 57.8019 6.7581 57.7968C6.77223 57.7917 6.78726 57.7896 6.80225 57.7905C6.81724 57.7914 6.83188 57.7954 6.84526 57.8022C6.85865 57.809 6.8705 57.8185 6.88008 57.8301V57.8301Z" fill="#00B966"/>
<path d="M17.61 57.9099H17C17 57.7599 17.1 57.7199 17.17 57.6599L19.23 55.9999C19.98 55.3999 20.75 54.7999 21.5 54.1899H22.14C22.2 54.3299 22.08 54.3799 22.01 54.4399L17.88 57.7299C17.7999 57.8036 17.7088 57.8643 17.61 57.9099Z" fill="#00DD78"/>
<path d="M22.05 65.8101H22.65C22.71 65.9601 22.58 66.0101 22.51 66.0901C21.7 66.9001 20.88 67.7101 20.07 68.5301C19.72 68.8901 19.35 69.2201 18.98 69.5301H18.34C18.28 69.4401 18.34 69.3901 18.41 69.3401C19.33 68.4801 20.2 67.5601 21.1 66.6701C21.34 66.4401 21.58 66.2001 21.81 65.9601C21.881 65.8968 21.9621 65.8461 22.05 65.8101V65.8101Z" fill="#00BC68"/>
<path d="M20 63.74C20.3646 63.3602 20.752 63.0028 21.16 62.67C21.48 62.36 21.83 62.08 22.16 61.79L24 60.17C24.0551 60.1171 24.1023 60.0564 24.14 59.99H24.78C24.67 60.25 24.41 60.36 24.22 60.55C24.03 60.74 23.51 61.19 23.15 61.55L21.7 62.75L20.78 63.57C20.73 63.57 20.67 63.66 20.67 63.74H20Z" fill="#00E37B"/>
<path d="M19.7601 57.9099H19.1201C19.1201 57.7899 19.2001 57.7399 19.2701 57.6799L22.7601 54.8799L23.6501 54.1699H24.2501C24.3101 54.3099 24.1901 54.3599 24.1201 54.4199C23.1201 55.2199 22.1201 56.0299 21.1201 56.8399C20.6501 57.1999 20.1901 57.5299 19.7601 57.9099Z" fill="#00ED80"/>
<path d="M21.0001 69.5601H20.4101C20.3401 69.4201 20.4601 69.3701 20.5301 69.3001L22.0001 67.8601C22.6601 67.2301 23.3001 66.5801 23.9501 65.9301L24.0801 65.8101H24.6801C24.7401 65.9101 24.6801 65.9701 24.6101 66.0201C24.0301 66.5801 23.4901 67.1601 22.9001 67.7001C22.3101 68.2401 21.7701 68.8201 21.2101 69.3801C21.1475 69.4482 21.077 69.5086 21.0001 69.5601V69.5601Z" fill="#00D674"/>
<path d="M19.66 54.1699C19.4161 54.4289 19.1444 54.6603 18.85 54.8599C18.31 55.3299 17.73 55.7599 17.15 56.1899C16.57 56.6199 15.82 57.2699 15.15 57.7999C15.1144 57.8272 15.0896 57.8661 15.08 57.9099H14.53C14.47 57.7699 14.59 57.7199 14.66 57.6599L16.66 56.0399C17.44 55.4199 18.21 54.7799 19 54.1699H19.66Z" fill="#00C16A"/>
<path d="M13.07 57.9099H12.47C12.41 57.7999 12.47 57.7499 12.56 57.7099C13.37 57.0399 14.2 56.3899 15.02 55.7099C15.68 55.1799 16.33 54.6499 17.02 54.1399H17.61C17.61 54.2899 17.49 54.3599 17.39 54.4399C15.93 55.5999 14.51 56.7699 13.07 57.9099Z" fill="#00A55C"/>
<path d="M23.6501 54.1699C23.5501 54.4199 23.3001 54.5199 23.1101 54.6699L19.4201 57.6699C19.3028 57.7386 19.2007 57.8305 19.1201 57.9399H18.5701C18.5101 57.8199 18.5701 57.7599 18.6801 57.7099C19.4001 57.1299 20.1101 56.5399 20.8401 55.9799L23.1001 54.1999L23.6501 54.1699Z" fill="#00E87D"/>
<path d="M26.63 60C26.2378 60.4122 25.8203 60.7996 25.38 61.16C25.07 61.46 24.73 61.73 24.38 62.01L22.59 63.59C22.53 63.59 22.48 63.67 22.48 63.75H22C21.93 63.6 22.06 63.54 22.14 63.47L23.44 62.32L25.19 60.78C25.48 60.52 25.77 60.25 26.08 60H26.63Z" fill="#00F182"/>
<path d="M13.2499 63.74H12.6499C12.6499 63.58 12.7899 63.51 12.8799 63.43C13.5199 62.88 14.1299 62.31 14.7699 61.76C15.4099 61.21 16.0199 60.63 16.6699 60.09L16.8199 59.99H17.3699C17.4299 60.08 17.3699 60.13 17.3099 60.18L14.9299 62.26C14.3699 62.76 13.8199 63.26 13.2499 63.74Z" fill="#017F49"/>
<path d="M19 69.5601C19.0572 69.4325 19.1469 69.3222 19.26 69.2401C20.4 68.2401 21.45 67.0601 22.56 65.9801C22.61 65.9801 22.67 65.8901 22.67 65.8101H23.26C23.32 65.9001 23.26 65.9501 23.2 66.0001C22.02 67.1501 20.86 68.3101 19.7 69.4701C19.668 69.5054 19.6309 69.5357 19.59 69.5601H19Z" fill="#00C46C"/>
<path d="M11.0499 57.9099H10.6099C10.5399 57.9099 10.5099 57.9099 10.5399 57.8199C10.5354 57.7713 10.5442 57.7224 10.5654 57.6783C10.5865 57.6343 10.6192 57.5968 10.6599 57.5699C10.7575 57.5533 10.848 57.508 10.9199 57.4399L14.8299 54.2999L15.0399 54.1599H15.5899C15.6499 54.2899 15.5199 54.3299 15.4599 54.3799C14.7299 54.9799 13.9999 55.5599 13.2699 56.1399L11.2699 57.7399L11.0499 57.9099Z" fill="#01894E"/>
<path d="M26.0001 60C25.8701 60.28 25.5901 60.4 25.3901 60.6C25.1901 60.8 24.7601 61.16 24.4401 61.44C23.8201 61.98 23.1901 62.51 22.6001 63.07C22.3701 63.28 22.0601 63.44 21.9201 63.75H21.3201C21.6531 63.3958 22.0071 63.0619 22.3801 62.75C22.7001 62.44 23.0501 62.16 23.3801 61.86L25.2601 60.21C25.334 60.1414 25.395 60.0601 25.4401 59.97L26.0001 60Z" fill="#00EE80"/>
<path d="M21.4999 54.1701C21.3699 54.4401 21.0899 54.5601 20.8699 54.7401C20.0799 55.3901 19.2799 56.0201 18.4799 56.6601L16.9999 57.8201C16.9711 57.8433 16.9502 57.8747 16.9399 57.9101H16.3899C16.6971 57.6093 17.0319 57.3381 17.3899 57.1001C18.1899 56.4401 19.0099 55.8001 19.8199 55.1001L20.8199 54.3401C20.8999 54.2801 20.9799 54.2301 20.9999 54.1201L21.4999 54.1701Z" fill="#00D675"/>
<path d="M13.25 63.74C13.35 63.52 13.56 63.42 13.72 63.26C13.88 63.1 14.36 62.71 14.72 62.43C15.33 61.89 15.95 61.36 16.55 60.82C16.82 60.58 17.08 60.33 17.35 60.11C17.3692 60.0966 17.3848 60.0786 17.3953 60.0576C17.4058 60.0367 17.4108 60.0134 17.41 59.99H17.96C18.02 60.08 17.96 60.13 17.9 60.18C17.1 60.87 16.32 61.57 15.53 62.26L14.2 63.44C14.0766 63.557 13.9389 63.6578 13.79 63.74H13.25Z" fill="#01894E"/>
<path d="M9.30009 62.82V62.55C9.30009 62.44 9.30009 62.33 9.30009 62.23C9.30009 62.13 9.48009 62.17 9.56009 62.11L12.0001 60H12.7301C12.7901 60.12 12.7301 60.18 12.6201 60.24C11.6201 61.07 10.7301 61.93 9.76009 62.75C9.67009 62.83 9.60009 62.92 9.51009 62.99C9.42009 63.06 9.36009 63.1 9.28009 62.99C9.27168 62.9326 9.27858 62.8739 9.30009 62.82V62.82Z" fill="#013C28"/>
<path d="M17.6101 57.9099C17.9033 57.6136 18.2211 57.3426 18.5601 57.0999L20.7601 55.3299L21.9601 54.3899C22.0401 54.3299 22.1301 54.2799 22.1401 54.1699H22.6901C22.6901 54.3399 22.5601 54.3999 22.4601 54.4799C21.7801 55.0399 21.0801 55.5799 20.3901 56.1399L18.3901 57.7699L18.1801 57.9099H17.6101Z" fill="#00E17A"/>
<path d="M7.1499 63.25C7.38493 63.2251 7.62254 63.2455 7.8499 63.31C8.2099 63.37 8.5699 63.47 8.9399 63.51C9.3099 63.55 9.2999 63.61 9.2599 63.87C9.2555 63.9032 9.2555 63.9369 9.2599 63.97L9.3199 64.57C9.2199 64.65 9.1199 64.62 9.0099 64.57L8.0099 64.38C7.88404 64.3599 7.75577 64.3599 7.6299 64.38C7.42463 64.0242 7.26344 63.6448 7.1499 63.25V63.25Z" fill="#009F59"/>
<path d="M22.05 65.8101L21.87 66.0101L18.66 69.2301C18.55 69.3401 18.37 69.3801 18.34 69.5601H17.79C17.79 69.4501 17.86 69.4001 17.92 69.3401C18.48 68.7701 19.07 68.2201 19.63 67.6501C20.19 67.0801 20.78 66.5601 21.3 66.0001C21.3569 65.9355 21.4246 65.8814 21.5 65.8401L22.05 65.8101Z" fill="#00B363"/>
<path d="M19.0001 54.1699C18.8701 54.4199 18.6101 54.5399 18.4101 54.7099C17.6701 55.3199 16.9101 55.9199 16.1601 56.5199L14.6901 57.6899C14.6101 57.7499 14.5301 57.7999 14.5101 57.9099H14.0001C13.9401 57.7799 14.0001 57.7399 14.1201 57.6799L16.8501 55.4999C17.4101 55.0499 17.9701 54.5999 18.5401 54.1699H19.0001Z" fill="#00BA67"/>
<path d="M17.1899 63.74C17.5401 63.3815 17.9143 63.0474 18.3099 62.74C18.6599 62.41 19.0399 62.1 19.3999 61.74C19.9999 61.21 20.5899 60.67 21.1899 60.15C21.2385 60.1036 21.279 60.0496 21.3099 59.99H21.8699C21.9299 60.12 21.8699 60.18 21.7499 60.23C20.8899 60.93 20.0699 61.68 19.2299 62.41C18.7799 62.8 18.3299 63.19 17.8999 63.6C17.8355 63.6546 17.7651 63.7015 17.6899 63.74H17.1899Z" fill="#00C46B"/>
<path d="M20.63 60C20.54 60.22 20.33 60.31 20.17 60.46C19.7 60.9 19.17 61.32 18.72 61.74L16.91 63.34C16.7473 63.4479 16.6079 63.5873 16.5 63.75H16C16 63.65 16.06 63.6 16.12 63.55C17.12 62.72 18.03 61.86 18.99 61.02C19.37 60.69 19.76 60.36 20.13 60.02L20.63 60Z" fill="#00B263"/>
<path d="M19.3001 65.8101H19.8001C19.8001 65.9101 19.7501 65.9601 19.6901 66.0201L17.5001 68.2201C17.1135 68.5733 16.7463 68.9472 16.4001 69.3401C16.3206 69.4215 16.2336 69.4952 16.1401 69.5601H15.5901C15.5301 69.4501 15.5901 69.3901 15.6801 69.3301C16.8501 68.2301 17.9701 67.0701 19.1101 65.9401C19.1668 65.8878 19.2308 65.844 19.3001 65.8101V65.8101Z" fill="#009152"/>
<path d="M18.38 60H18.93C18.99 60.12 18.93 60.18 18.82 60.24C18.5206 60.5226 18.2069 60.7896 17.88 61.04C17.26 61.55 16.69 62.11 16.08 62.63C15.64 63 15.24 63.42 14.76 63.75H14.26C14.26 63.64 14.32 63.58 14.39 63.53C15.1 62.93 15.78 62.3 16.48 61.69L18.38 60Z" fill="#009856"/>
<path d="M13.0701 57.9101C13.1801 57.6601 13.4401 57.5501 13.6401 57.3901C14.4501 56.7201 15.2701 56.0801 16.0801 55.3901L17.3001 54.3901C17.4101 54.3001 17.5001 54.1901 17.6001 54.0901H18.1101C18.1701 54.2201 18.0401 54.2601 17.9801 54.3101C17.2801 54.8901 16.5601 55.4401 15.8501 56.0101L13.5701 57.8301L13.0701 57.9101Z" fill="#00AF61"/>
<path d="M13.43 65.8101H14.16C14.23 65.9101 14.16 65.9701 14.09 66.0201C13.46 66.6401 12.87 67.3001 12.2 67.8801C12 68.0601 11.81 68.2601 11.62 68.4601C11.43 68.6601 11.54 68.5701 11.46 68.5801C11.3675 68.5627 11.2803 68.5237 11.2056 68.4664C11.1309 68.4091 11.0708 68.335 11.03 68.2501C11.0528 68.1481 11.1136 68.0587 11.2 68.0001C11.94 67.3501 12.59 66.6301 13.3 65.9401L13.43 65.8101Z" fill="#013C28"/>
<path d="M0.810059 52.3301C1.26186 52.356 1.71037 52.423 2.15006 52.5301C2.27006 52.5301 2.39006 52.5901 2.51006 52.6001C2.63006 52.6101 2.70006 52.7101 2.74006 52.8301L2.88006 53.7501C2.79792 53.77 2.7122 53.77 2.63006 53.7501C2.21807 53.7 1.81031 53.6198 1.41006 53.5101C1.1693 53.1388 0.9682 52.7433 0.810059 52.3301Z" fill="#009655"/>
<path d="M11.46 68.5601C11.73 68.2701 12.01 68.0001 12.3 67.7301C12.92 67.1401 13.52 66.5201 14.12 65.9101C14.12 65.9101 14.12 65.8401 14.12 65.8101H14.77C14.83 65.9101 14.77 65.9701 14.69 66.0201C14.1 66.6201 13.51 67.2301 12.89 67.8001C12.63 68.0301 12.39 68.2901 12.14 68.5301C12.033 68.6587 11.8955 68.7584 11.74 68.8201C11.64 68.7801 11.49 68.7401 11.46 68.5601Z" fill="#01442C"/>
<path d="M9.31009 63C9.40009 63 9.46009 63 9.53009 62.9L11.8001 60.9L12.6201 60.17C12.6801 60.12 12.7401 60.08 12.7401 59.99H13.3401C13.3401 60.1 13.2701 60.15 13.2001 60.21C12.1201 61.16 11.0301 62.11 9.97009 63.09L9.62009 63.38C9.58872 63.4088 9.54768 63.4248 9.50509 63.4248C9.4625 63.4248 9.42146 63.4088 9.39009 63.38C9.37748 63.3906 9.36155 63.3964 9.34509 63.3964C9.32863 63.3964 9.3127 63.3906 9.30009 63.38C9.26667 63.255 9.27014 63.123 9.31009 63Z" fill="#01432C"/>
<path d="M18.38 60C18.26 60.28 17.98 60.4 17.78 60.6C17.43 60.94 17.06 61.25 16.69 61.6C16.08 62.14 15.46 62.67 14.85 63.22C14.6322 63.383 14.4342 63.571 14.26 63.78H13.75C14.06 63.5 14.36 63.21 14.68 62.94C15 62.67 15.33 62.37 15.68 62.09L17.49 60.49C17.64 60.35 17.85 60.25 17.94 60.03L18.38 60Z" fill="#009152"/>
<path d="M11.05 57.9099C11.15 57.6999 11.37 57.5999 11.54 57.4599L15.54 54.2899C15.5637 54.2788 15.5843 54.262 15.6 54.2411C15.6157 54.2202 15.626 54.1958 15.63 54.1699H16.13C16.13 54.3099 16.03 54.3699 15.94 54.4299L12.94 56.7899C12.47 57.1599 12.02 57.5499 11.55 57.9099H11.05Z" fill="#009152"/>
<path d="M10 63.65C10.31 63.56 10.49 63.29 10.72 63.1C11.3467 62.56 11.9667 62.01 12.58 61.45C13.06 61.03 13.53 60.62 14 60.19C14.0647 60.1257 14.1389 60.0718 14.22 60.03H14.68C14.73 60.22 14.57 60.28 14.47 60.37C14.06 60.71 13.67 61.07 13.27 61.43L10.84 63.58C10.7679 63.6581 10.6753 63.7145 10.5728 63.7428C10.4703 63.7711 10.362 63.7701 10.26 63.74C10.16 63.69 10.07 63.71 10 63.65Z" fill="#015735"/>
<path d="M16.82 60C16.52 60.34 16.14 60.61 15.82 60.92C15.5 61.23 15.14 61.51 14.82 61.8C14.33 62.23 13.82 62.65 13.36 63.1C13.1055 63.2927 12.871 63.5105 12.66 63.75H12.2C12.2 63.64 12.26 63.59 12.32 63.53L14.67 61.45C15.17 61.02 15.62 60.55 16.15 60.16C16.2225 60.101 16.2994 60.0475 16.38 60H16.82Z" fill="#017745"/>
<path d="M11.55 57.9099C11.55 57.7999 11.66 57.7499 11.73 57.6899L13.73 56.1199L15.62 54.6199C15.8104 54.4947 15.9821 54.3432 16.13 54.1699H16.63C16.63 54.2799 16.56 54.3299 16.5 54.3899C15.8 54.9599 15.09 55.5099 14.38 56.0499C13.67 56.5899 12.92 57.2099 12.2 57.7899C12.143 57.8391 12.079 57.8796 12.01 57.9099H11.55Z" fill="#009856"/>
<path d="M17.92 65.8101H18.34C18.4 65.9101 18.34 65.9701 18.26 66.0201C17.26 67.0201 16.34 68.0201 15.35 68.9201L14.67 69.5601H14.21C14.15 69.4801 14.21 69.4301 14.21 69.3901C14.82 68.8101 15.38 68.1901 15.99 67.6101C16.6 67.0301 17.07 66.6101 17.61 66.0201C17.6992 65.9312 17.8044 65.8599 17.92 65.8101V65.8101Z" fill="#017A47"/>
<path d="M14.9999 54.1699C14.8899 54.3899 14.6599 54.4899 14.4899 54.6299C13.4899 55.4899 12.3699 56.3299 11.3099 57.1799L10.8399 57.5599C10.7799 57.5599 10.7199 57.6799 10.6399 57.5599C10.6484 57.3128 10.7482 57.0777 10.9199 56.8999C11.3229 56.6414 11.7042 56.3504 12.0599 56.0299C12.7099 55.5199 13.3399 55.0299 13.9999 54.4899C14.1599 54.3699 14.2899 54.1899 14.4899 54.1299L14.9999 54.1699Z" fill="#01814A"/>
<path d="M14.76 63.74C15.08 63.37 15.49 63.1 15.83 62.74C16.17 62.38 16.48 62.19 16.83 61.9C17.41 61.35 18.03 60.9 18.63 60.36C18.7783 60.2652 18.8963 60.1298 18.97 59.97H19.43C19.43 60.07 19.38 60.12 19.32 60.18L17.32 61.93L15.59 63.46L15.28 63.72L14.76 63.74Z" fill="#00A15A"/>
<path d="M16.5501 65.8101H17.0501C17.0501 65.9301 17.0501 66.0001 16.9401 66.0701C16.5001 66.5101 16.0801 66.9901 15.6001 67.3901C14.8701 67.9901 14.2501 68.7101 13.6001 69.3901C13.4701 69.5201 13.3401 69.5201 13.0801 69.3901C13.1394 69.2169 13.2513 69.0666 13.4001 68.9601C13.8501 68.5501 14.2601 68.0901 14.7101 67.6801C15.1601 67.2701 15.6601 66.7401 16.1401 66.2801C16.263 66.112 16.4002 65.9547 16.5501 65.8101V65.8101Z" fill="#01643C"/>
<path d="M19.5701 69.5601C19.5701 69.4601 19.6701 69.4101 19.7301 69.3401L21.9201 67.1501C22.3301 66.7401 22.7501 66.3501 23.1701 65.9501C23.191 65.933 23.2081 65.9117 23.2202 65.8876C23.2322 65.8635 23.239 65.837 23.2401 65.8101H23.7001C23.7701 65.9501 23.6501 66.0001 23.5801 66.0701L22.4001 67.2201C21.7701 67.8401 21.1301 68.4701 20.5101 69.1001C20.36 69.2634 20.1997 69.4171 20.0301 69.5601H19.5701Z" fill="#00CB6F"/>
<path d="M19.2999 65.8101L18.5999 66.5301C17.9099 67.2301 17.2099 67.9201 16.5199 68.6101C16.2599 68.8701 15.9899 69.1101 15.7299 69.3601C15.6699 69.4201 15.5899 69.4601 15.5899 69.5601H15.1299C15.1299 69.4001 15.2199 69.3301 15.3099 69.2401C16.2099 68.4001 17.0699 67.5201 17.9399 66.6501L18.5999 66.0001C18.6684 65.9261 18.7497 65.8652 18.8399 65.8201L19.2999 65.8101Z" fill="#01894E"/>
<path d="M12 57.9099C12.3376 57.5809 12.6985 57.2768 13.08 56.9999C13.7 56.4999 14.32 55.9999 14.96 55.5199C15.6 55.0399 15.91 54.7399 16.4 54.3799C16.4706 54.3243 16.5344 54.2605 16.59 54.1899H17C16.9 54.4299 16.66 54.5099 16.49 54.6499C15.49 55.4499 14.49 56.2299 13.54 57.0199L12.54 57.7999C12.5124 57.8123 12.4886 57.8317 12.471 57.8564C12.4534 57.881 12.4427 57.9098 12.44 57.9399H12.1L12 57.9099Z" fill="#009F59"/>
<path d="M16.1399 69.5601C16.1899 69.3701 16.3699 69.2901 16.4899 69.1601C17.0199 68.6001 17.5799 68.0701 18.1199 67.5201C18.6599 66.9701 19.2399 66.3801 19.7999 65.8101H20.2599C20.3399 65.9201 20.2599 65.9801 20.1899 66.0401C19.8299 66.4001 19.4399 66.7501 19.0499 67.0401C18.8899 67.1801 18.7699 67.3601 18.6199 67.5101C17.9899 68.1401 17.3499 68.7601 16.7199 69.4001C16.6696 69.4458 16.6122 69.483 16.5499 69.5101L16.1399 69.5601Z" fill="#009A57"/>
<path d="M4.21997 58.3799C4.35997 58.2699 4.50997 58.3799 4.64997 58.3799C5.07997 58.3799 5.48997 58.5499 5.91997 58.5599C5.97997 58.5599 5.99997 58.6199 6.03997 58.6499C6.18505 58.9622 6.24706 59.3067 6.21997 59.6499C6.15997 59.7599 6.05997 59.7499 5.95997 59.7399C5.85997 59.7299 5.49997 59.6499 5.26997 59.5999C5.12192 59.5658 4.96802 59.5658 4.81997 59.5999C4.57159 59.2189 4.37014 58.8093 4.21997 58.3799V58.3799Z" fill="#009D58"/>
<path d="M18.8399 65.81L17.6999 67C17.1999 67.51 16.6999 68 16.1799 68.52L15.2999 69.35C15.2291 69.419 15.1715 69.5003 15.1299 69.59H14.6699C14.6699 69.48 14.7699 69.42 14.8399 69.36C15.9999 68.27 17.0599 67.14 18.1699 66C18.2399 65.94 18.3299 65.88 18.3399 65.77L18.8399 65.81Z" fill="#01824B"/>
<path d="M23.4701 60C23.3601 60.26 23.1001 60.37 22.9201 60.56C22.7401 60.75 22.2801 61.11 21.9201 61.39C21.3001 61.93 20.6801 62.46 20.0801 63.01C19.8019 63.2332 19.5443 63.4809 19.3101 63.75H18.8501C18.8501 63.57 19.0001 63.5 19.1101 63.4L21.7601 61.06C22.1301 60.74 22.4901 60.41 22.8601 60.06C22.9071 60.0175 22.9613 59.9836 23.0201 59.96L23.4701 60Z" fill="#00D775"/>
<path d="M17.9199 65.8101C17.5599 66.2101 17.1699 66.5901 16.7799 66.9601C16.3899 67.3301 16.2899 67.4701 16.0299 67.7101C15.7699 67.9501 15.4499 68.2701 15.1699 68.5501C14.8899 68.8301 14.6899 69.0301 14.4699 69.2901C14.3799 69.3801 14.2199 69.4001 14.2099 69.5601C14.0249 69.5952 13.8349 69.5952 13.6499 69.5601C14.3399 68.8801 15.0099 68.1701 15.7399 67.5601C16.1099 67.2401 16.4399 66.8701 16.7399 66.5601C16.9543 66.3341 17.1814 66.1204 17.4199 65.9201L17.9199 65.8101Z" fill="#017343"/>
<path d="M21.5001 65.8101C21.3013 66.0687 21.0805 66.3096 20.8401 66.5301C20.5801 66.7901 20.3001 67.0301 20.0601 67.3001C19.836 67.5458 19.599 67.7795 19.3501 68.0001C18.8201 68.5101 18.2901 69.0001 17.7901 69.5601H17.3301C17.3301 69.4501 17.4001 69.4001 17.4601 69.3401C18.0901 68.7301 18.7101 68.1001 19.3201 67.4901C19.9301 66.8801 20.4601 66.3601 21.0401 65.8101H21.5001Z" fill="#00AC60"/>
<path d="M21 65.8101C20.8312 66.0686 20.6219 66.2982 20.38 66.4901C20.1 66.7801 19.82 67.0601 19.53 67.3401L18.77 68.0701C18.51 68.3301 18.26 68.6101 18 68.8701C17.74 69.1301 17.51 69.3101 17.29 69.5601H17C16.93 69.4701 17 69.4001 17.05 69.3401C18.18 68.2801 19.25 67.1601 20.35 66.0701C20.44 65.9647 20.5484 65.8766 20.67 65.8101H21Z" fill="#00A65C"/>
<path d="M14.21 60C13.8261 60.3875 13.4222 60.7547 13 61.1C12.66 61.43 12.29 61.73 11.94 62.04L10.21 63.59C10.13 63.67 10.06 63.59 9.97997 63.59C9.89997 63.59 9.87997 63.59 9.83997 63.59C9.79997 63.59 9.83997 63.42 9.92997 63.36L12.5 61.09C12.87 60.76 13.23 60.43 13.62 60.09L13.8 60H14.21Z" fill="#015032"/>
<path d="M11.41 63.74H11C11 63.64 11 63.5899 11.11 63.5299L12.77 62L14.5 60.47L15.08 59.95H15.58C15.58 60.04 15.58 60.0899 15.48 60.1399C14.41 61.0699 13.35 62.02 12.27 62.95C12 63.24 11.72 63.51 11.41 63.74Z" fill="#01623B"/>
<path d="M7.61011 64.3799C7.61011 64.2399 7.75011 64.2999 7.83011 64.3099L9.35011 64.5699L9.52011 65.5699C9.42011 65.6599 9.31011 65.5699 9.20011 65.5699C8.87239 65.4909 8.53713 65.4473 8.20011 65.4399C7.97088 65.1057 7.77335 64.7508 7.61011 64.3799V64.3799Z" fill="#009A57"/>
<path d="M20 69.56C20 69.46 20.1 69.41 20.16 69.34L22.05 67.45L23.55 66C23.61 65.94 23.7 65.89 23.7 65.78H24.11C24.11 65.86 24.06 65.9 24.01 65.95C23.49 66.47 23.01 66.95 22.44 67.52L20.59 69.33C20.53 69.39 20.45 69.43 20.45 69.53L20 69.56Z" fill="#00D071"/>
<path d="M13.7999 60C13.5427 60.2677 13.2652 60.5151 12.9699 60.74C12.6399 61.07 12.2599 61.36 11.9099 61.67L9.9999 63.37C9.9299 63.42 9.8599 63.47 9.8599 63.57C9.6966 63.5584 9.53865 63.5069 9.3999 63.42C9.6599 63.42 9.7799 63.18 9.9399 63.03C10.7599 62.3 11.5799 61.57 12.4099 60.85C12.7299 60.57 13.0399 60.28 13.3499 59.99L13.7999 60Z" fill="#014A2F"/>
<path d="M25.0001 54.1699C24.8801 54.4099 24.6301 54.5199 24.4401 54.6799C23.4401 55.4799 22.4401 56.2599 21.5001 57.0399L20.5901 57.7599C20.5339 57.7971 20.4889 57.849 20.4601 57.9099H20.0501C19.9901 57.7899 20.1001 57.7499 20.1601 57.6999C20.6601 57.2799 21.1601 56.8799 21.6901 56.4699L24.4201 54.2799C24.4712 54.2353 24.5284 54.1983 24.5901 54.1699H25.0001Z" fill="#00F282"/>
<path d="M15.08 60C15.0129 60.1527 14.9014 60.2816 14.76 60.37C14.29 60.8 13.81 61.22 13.33 61.63C12.85 62.04 12.17 62.63 11.6 63.15C11.3633 63.3235 11.1484 63.5249 10.96 63.75C10.7255 63.7951 10.4845 63.7951 10.25 63.75C10.54 63.82 10.71 63.61 10.9 63.45C11.38 63.03 11.9 62.63 12.35 62.18C12.8 61.73 13.35 61.32 13.81 60.87L14.55 60.22C14.55 60.17 14.67 60.13 14.67 60.04L15.08 60Z" fill="#015D39"/>
<path d="M18.5201 63.74H18.1101C18.1101 63.54 18.2901 63.45 18.4201 63.34C19.4201 62.42 20.5201 61.51 21.5501 60.57C21.7649 60.3632 21.992 60.1695 22.2301 59.99H22.6501C22.7101 60.09 22.6501 60.15 22.5601 60.2C21.7001 60.94 20.8701 61.72 20.0101 62.46C19.5801 62.83 19.1401 63.2 18.7201 63.6L18.5201 63.74Z" fill="#00CE70"/>
<path d="M17.47 65.81C17.41 66.01 17.22 66.1 17.1 66.23C16.74 66.61 16.35 66.96 15.98 67.32L13.89 69.37C13.82 69.43 13.76 69.52 13.65 69.53C13.3554 69.5038 13.066 69.4365 12.79 69.33C12.89 69.18 12.97 69.33 13.06 69.33C13.141 69.3895 13.2422 69.4144 13.3415 69.3994C13.4409 69.3844 13.5302 69.3307 13.59 69.25C14.1138 68.6646 14.6714 68.1103 15.26 67.59C15.83 67.11 16.32 66.59 16.86 66.06C16.9406 65.9873 17.0052 65.8988 17.05 65.8L17.47 65.81Z" fill="#016B3F"/>
<path d="M13.5701 57.9099C13.6901 57.6599 13.9501 57.5499 14.1501 57.3899C14.9401 56.7399 15.7401 56.1099 16.5501 55.4699L18.0001 54.3099C18.0501 54.3099 18.1001 54.2399 18.1101 54.1699H18.5201C18.4101 54.3899 18.1901 54.4899 18.0101 54.6299C17.0101 55.4799 15.9201 56.2999 14.8801 57.1299C14.6201 57.3399 14.3601 57.5499 14.0901 57.7499C14.0401 57.7499 13.9801 57.8399 13.9801 57.9099H13.5701Z" fill="#00B363"/>
<path d="M11.4099 63.74C11.6818 63.4348 11.9796 63.1538 12.2999 62.9C12.7099 62.51 13.1499 62.16 13.5699 61.79L15.4599 60.13C15.5051 60.088 15.5454 60.0411 15.5799 59.99H15.9999C15.9499 60.21 15.7499 60.29 15.6099 60.41L12.6099 63.06C12.3365 63.303 12.0494 63.53 11.7499 63.74H11.4099Z" fill="#016A3F"/>
<path d="M21 69.56C21.0033 69.53 21.0131 69.5011 21.0286 69.4752C21.0442 69.4493 21.0651 69.4271 21.09 69.41C21.66 68.84 22.22 68.24 22.82 67.7C23.42 67.16 24 66.57 24.57 66C24.63 65.95 24.71 65.9 24.71 65.8H25.12C25.12 65.96 25.03 66.03 24.94 66.12C24.3 66.77 23.65 67.41 22.94 68.04C22.23 68.67 21.94 69.04 21.41 69.55L21 69.56Z" fill="#00DE78"/>
<path d="M15.68 65.8101H16.14C16.14 65.9201 16.14 65.9801 16.04 66.0501C14.98 67.1201 13.87 68.1401 12.83 69.2201C12.8048 69.2512 12.7694 69.2725 12.73 69.2801C12.62 69.2801 12.49 69.2801 12.4 69.1301C12.31 68.9801 12.46 68.9801 12.51 68.9201C13.08 68.3601 13.63 67.7901 14.21 67.2501C14.79 66.7101 15.18 66.2901 15.68 65.8101Z" fill="#015836"/>
<path d="M22.2299 60C22.1399 60.22 21.9299 60.31 21.7799 60.46C21.4099 60.82 21.0099 61.15 20.6199 61.46C20.0499 61.96 19.4599 62.46 18.8999 62.97C18.6129 63.1938 18.3483 63.4449 18.1099 63.72H17.6899C18.0603 63.3393 18.4509 62.9787 18.8599 62.64C19.1599 62.36 19.4799 62.12 19.7699 61.85C20.3899 61.28 21.0199 60.74 21.6699 60.21C21.7499 60.15 21.8499 60.09 21.8699 59.97L22.2299 60Z" fill="#00C96E"/>
<path d="M11.3201 65.8101H12.3201C12.3201 65.9301 12.3201 66.0001 12.2101 66.0601L10.7701 67.5101C10.7427 67.5479 10.7066 67.5786 10.6648 67.5995C10.623 67.6204 10.5768 67.6309 10.5301 67.6301C10.3249 67.476 10.177 67.2578 10.1101 67.0101C10.5201 66.6401 10.9001 66.2001 11.3201 65.8101Z" fill="#01291F"/>
<path d="M11.9999 60C11.9394 60.1056 11.8577 60.1976 11.7599 60.27C11.2999 60.67 10.8399 61.09 10.3799 61.5L9.51989 62.27C9.44989 62.33 9.36989 62.38 9.33989 62.27C9.30989 62.16 9.39989 61.81 9.38989 61.58C9.38989 61.58 9.62989 61.5 9.72989 61.41C10.2199 60.97 10.7299 60.53 11.2199 60.08L11.9999 60Z" fill="#013424"/>
<path d="M20.0801 60C20.0095 60.1618 19.8908 60.298 19.7401 60.39L17.8401 62.08L16.1001 63.58L15.9501 63.75H15.5901C15.5901 63.55 15.7701 63.46 15.9001 63.35L18.2601 61.26C18.7401 60.84 19.2101 60.4 19.7101 60H20.0801Z" fill="#00AB5F"/>
<path d="M15.68 65.8101C15.68 65.9201 15.59 65.9701 15.52 66.0301L12.59 68.9201L12.42 69.1101C12.3476 69.1399 12.2674 69.1454 12.1916 69.1255C12.1158 69.1057 12.0485 69.0616 12 69.0001C12.29 68.6701 12.61 68.3801 12.92 68.0701L14.21 66.8001C14.53 66.4801 14.84 66.1601 15.21 65.8601L15.68 65.8101Z" fill="#015032"/>
<path d="M18.1499 57.9101C18.1499 57.7701 18.3099 57.7301 18.3999 57.6601L21.3999 55.2401L22.5599 54.2401C22.5953 54.2045 22.6256 54.1641 22.6499 54.1201H23.0599C23.0599 54.2001 22.9899 54.2401 22.9299 54.2901L20.1699 56.4801L18.7299 57.7001C18.6599 57.7601 18.5799 57.8101 18.5699 57.9101H18.1499Z" fill="#00E47C"/>
<path d="M13.4299 65.8101C13.4299 65.9101 13.3499 65.9501 13.2999 66.0101C12.7099 66.6001 12.1199 67.2001 11.5199 67.7801C11.3488 67.9179 11.1914 68.0719 11.0499 68.2401C10.8699 68.2401 10.8099 68.1001 10.7399 67.9701C10.6699 67.8401 10.8299 67.7601 10.9099 67.6801L12.7899 65.8101H13.4299Z" fill="#013524"/>
<path d="M14.5301 54.1699C14.1824 54.4885 13.8186 54.7889 13.4401 55.0699C12.7201 55.6599 11.9801 56.2499 11.2401 56.8299C11.1701 56.8899 11.1101 56.9799 11.0001 56.9499C10.8901 56.9199 11.0001 56.8899 11.0001 56.8599C11.0948 56.6199 11.2227 56.3944 11.3801 56.1899C11.7106 55.9732 12.0248 55.7326 12.3201 55.4699C12.8701 55.0399 13.4101 54.5899 13.9701 54.1699H14.5301Z" fill="#017A47"/>
<path d="M12.7499 69.2501C13.3699 68.5901 13.9999 67.9401 14.6699 67.3301C15.0799 66.9601 15.4499 66.5601 15.8299 66.1701C15.9399 66.0601 16.0899 65.9801 16.1399 65.8101H16.5499C16.4799 66.0001 16.3099 66.1001 16.1799 66.2301C15.3099 67.1101 14.4199 67.9801 13.5299 68.8401C13.3699 69.0001 13.2099 69.1701 13.0599 69.3401C12.9099 69.5101 12.8799 69.2401 12.7899 69.3401C12.7899 69.3401 12.7199 69.2701 12.7499 69.2501Z" fill="#015D39"/>
<path d="M8.20996 65.4801C8.26996 65.3301 8.37996 65.4101 8.47996 65.4201C8.82996 65.4201 9.16996 65.5701 9.47996 65.5801L9.57996 65.8101C9.74996 66.1101 9.82996 66.4601 9.97996 66.8101C9.98961 66.8268 9.9947 66.8458 9.9947 66.8651C9.9947 66.8844 9.98961 66.9034 9.97996 66.9201C9.69612 66.9419 9.41075 66.908 9.13996 66.8201C8.78512 66.4063 8.4735 65.9573 8.20996 65.4801Z" fill="#009554"/>
<path d="M18.52 63.74C18.87 63.3814 19.2442 63.0473 19.64 62.74C20.05 62.36 20.49 62.01 20.91 61.64C21.33 61.27 21.97 60.64 22.52 60.2C22.58 60.15 22.64 60.11 22.65 60.02H23.06C22.7235 60.3644 22.3697 60.6915 22 61C21.72 61.28 21.4 61.53 21.1 61.79L19.2 63.41C19.09 63.51 18.99 63.63 18.89 63.74H18.52Z" fill="#00D373"/>
<path d="M11.78 63.74C11.88 63.54 12.08 63.45 12.24 63.31C13.05 62.65 13.8 61.93 14.58 61.24L16 60H16.37C16.21 60.25 15.94 60.36 15.74 60.55C15.32 60.93 14.9 61.31 14.47 61.68C13.86 62.21 13.28 62.77 12.65 63.28C12.4748 63.4136 12.3198 63.5719 12.19 63.75L11.78 63.74Z" fill="#017042"/>
<path d="M20.63 65.8101L20.41 66.0501C19.36 67.0501 18.3101 68.1401 17.2701 69.2001C17.1601 69.3101 16.95 69.3401 16.96 69.5601H16.55C17.08 68.9601 17.69 68.4301 18.25 67.8501C18.8032 67.2658 19.3874 66.7117 20 66.1901C20.11 66.1001 20.3001 66.0101 20.2901 65.8101H20.63Z" fill="#009F59"/>
<path d="M24.62 54.1699C24.3898 54.422 24.1315 54.6468 23.85 54.8399C23.13 55.4299 22.4 55.9999 21.67 56.5799L20.18 57.7699C20.13 57.7699 20.08 57.8399 20.08 57.9099H19.76C19.76 57.6999 20.02 57.6199 20.17 57.4999L23.43 54.8999L24.12 54.3499C24.18 54.2999 24.25 54.2499 24.25 54.1699H24.62Z" fill="#00F081"/>
<path d="M15.22 65.81C14.9845 66.1273 14.7126 66.4159 14.41 66.67L13.52 67.56L12.14 68.9C12.14 68.9 12.08 68.9 12.05 68.9C12.0234 68.9129 11.9942 68.9193 11.9647 68.9189C11.9352 68.9185 11.9062 68.9112 11.88 68.8976C11.8538 68.884 11.8311 68.8645 11.8138 68.8406C11.7964 68.8167 11.7849 68.7891 11.78 68.76C12.1534 68.445 12.5105 68.1113 12.85 67.76C13.47 67.19 14.05 66.58 14.65 65.99C14.72 65.93 14.8 65.88 14.81 65.77L15.22 65.81Z" fill="#014B2F"/>
<path d="M1.40991 53.52C1.90533 53.5567 2.39695 53.6337 2.87991 53.75L2.98991 54.16C3.06292 54.2316 3.11675 54.3204 3.14645 54.4183C3.17616 54.5162 3.18079 54.6199 3.15991 54.72C3.10776 54.7423 3.05163 54.7538 2.99491 54.7538C2.9382 54.7538 2.88207 54.7423 2.82991 54.72C2.57983 54.6937 2.33234 54.6468 2.08991 54.58C1.82208 54.2549 1.59381 53.899 1.40991 53.52V53.52Z" fill="#018F52"/>
<path d="M19.71 60C19.61 60.21 19.4 60.32 19.24 60.47C19.08 60.62 18.6 61.03 18.24 61.31C17.6 61.88 16.95 62.43 16.32 63.01C16.0418 63.2333 15.7841 63.4809 15.55 63.75H15.23C15.29 63.57 15.47 63.49 15.6 63.37C16.12 62.89 16.66 62.37 17.19 61.95L19.19 60.16C19.2416 60.1139 19.2854 60.0599 19.32 60H19.71Z" fill="#00A75D"/>
<path d="M10.0001 66.8601C9.8426 66.5393 9.71538 66.2045 9.62012 65.8601H11.3201C11.0246 66.2292 10.6892 66.5646 10.3201 66.8601C10.2401 66.9301 10.1701 67.0401 10.0401 67.0501C10.0228 67.0424 10.0076 67.0307 9.99573 67.0159C9.98385 67.0012 9.97561 66.9838 9.97171 66.9653C9.96781 66.9468 9.96835 66.9276 9.97329 66.9093C9.97822 66.891 9.98742 66.8742 10.0001 66.8601V66.8601Z" fill="#01241C"/>
<path d="M13.94 54.1699C13.94 54.3099 13.78 54.3499 13.69 54.4199C12.99 54.9999 12.28 55.5599 11.57 56.1299C11.513 56.184 11.4385 56.2159 11.36 56.2199C11.3 56.0699 11.4301 55.9699 11.4701 55.8499C11.5692 55.6338 11.697 55.432 11.8501 55.2499C11.9501 55.2499 12.0001 55.2499 12.0601 55.1499L13.0601 54.3399C13.1404 54.2692 13.2315 54.2118 13.33 54.1699H13.94Z" fill="#017042"/>
<path d="M4.82007 59.52C4.88007 59.36 5.01007 59.43 5.11007 59.45C5.42007 59.45 5.73007 59.57 6.04007 59.64C6.08898 59.6547 6.14115 59.6547 6.19007 59.64C6.31007 59.72 6.29007 59.87 6.34007 59.99C6.39007 60.11 6.53007 60.36 6.45007 60.58C6.33334 60.6196 6.2068 60.6196 6.09007 60.58L5.44007 60.47C5.19931 60.1769 4.9914 59.8583 4.82007 59.52V59.52Z" fill="#009856"/>
<path d="M9.9999 66.86L10.0899 67C10.2021 67.2133 10.3362 67.4144 10.4899 67.6C10.6283 67.6817 10.729 67.8146 10.7699 67.97C10.8479 68.0747 10.9425 68.1659 11.0499 68.24C11.1678 68.3688 11.3064 68.4769 11.4599 68.56C11.5463 68.6616 11.6561 68.7405 11.7799 68.79C11.8561 68.8595 11.9492 68.9078 12.0499 68.93C12.1499 69.05 12.2899 69.06 12.4199 69.11C12.5146 69.1867 12.629 69.2352 12.7499 69.25V69.33C11.6355 68.9523 10.6252 68.3187 9.7999 67.48C9.56041 67.269 9.34265 67.0345 9.1499 66.78C9.36841 66.7603 9.5887 66.7806 9.7999 66.84L9.9999 66.86Z" fill="#028E51"/>
<path d="M10.77 68C10.69 67.87 10.54 67.78 10.49 67.63C10.5288 67.6262 10.5662 67.6134 10.5992 67.5926C10.6322 67.5717 10.6599 67.5435 10.68 67.51L12.13 66C12.1976 65.9404 12.2491 65.8647 12.28 65.78H12.79C12.6989 65.9766 12.5574 66.1457 12.38 66.27C11.85 66.78 11.38 67.27 10.83 67.82C10.8 67.87 10.79 67.93 10.77 68Z" fill="#012F22"/>
<path d="M21.45 69.5601C21.45 69.4601 21.54 69.4201 21.59 69.3601C22.16 68.7901 22.7199 68.2001 23.3099 67.6501C23.8999 67.1001 24.39 66.5901 24.93 66.0701C25.0105 65.9974 25.0751 65.9089 25.12 65.8101H25.35C25.35 66.0601 25.07 66.1701 24.92 66.3301C24.59 66.6801 24.25 67.0301 23.92 67.3301C23.41 67.8101 22.92 68.3301 22.43 68.7901L21.8799 69.3501C21.8299 69.4001 21.76 69.4401 21.76 69.5301L21.45 69.5601Z" fill="#00DE78"/>
<path d="M2.09009 54.5801C2.45016 54.5882 2.80855 54.6317 3.16009 54.7101C3.22568 54.727 3.2945 54.727 3.36009 54.7101C3.42099 54.9901 3.42099 55.28 3.36009 55.5601C3.31009 55.7101 3.48009 55.8701 3.36009 56.0201C2.8795 55.5938 2.45298 55.1102 2.09009 54.5801V54.5801Z" fill="#018A4F"/>
<path d="M5.43994 60.45C5.68994 60.33 5.90994 60.45 6.14994 60.51H6.45994C6.48832 60.5327 6.52359 60.5451 6.55994 60.5451C6.59629 60.5451 6.63156 60.5327 6.65994 60.51C6.70458 60.5912 6.72799 60.6824 6.72799 60.775C6.72799 60.8677 6.70458 60.9588 6.65994 61.04C6.70638 61.3043 6.73312 61.5717 6.73994 61.84C6.25029 61.4328 5.81356 60.9658 5.43994 60.45V60.45Z" fill="#019353"/>
<path d="M9.63008 60.4L9.77008 60H10.8201C10.8801 60.1 10.8201 60.16 10.7401 60.21C10.4101 60.51 10.0801 60.81 9.74008 61.1C9.67008 61.16 9.58008 61.27 9.47008 61.16C9.44472 60.8963 9.50055 60.6311 9.63008 60.4V60.4Z" fill="#012A1F"/>
<path d="M9.48988 61.18C9.80016 60.9856 10.0827 60.7501 10.3299 60.48C10.5099 60.33 10.7299 60.23 10.8199 59.99H11.2799C11.2799 60.08 11.2099 60.12 11.1499 60.17L9.59988 61.55C9.49988 61.64 9.43988 61.65 9.43988 61.49C9.43988 61.33 9.35988 61.26 9.48988 61.18Z" fill="#012E21"/>
<path d="M13.3399 54.1699C12.9999 54.5099 12.5999 54.7699 12.2399 55.0699L11.9599 55.2899C11.9099 55.2899 11.8799 55.2899 11.8699 55.2899C11.8688 55.2085 11.8884 55.1282 11.9269 55.0565C11.9654 54.9848 12.0215 54.924 12.0899 54.8799L12.5199 54.1899L13.3399 54.1699Z" fill="#01673D"/>
<path d="M11.79 26.28C11.8194 26.2651 11.852 26.2573 11.885 26.2573C11.918 26.2573 11.9506 26.2651 11.98 26.28C12.54 26.38 13.09 26.49 13.65 26.61C14.21 26.73 14.97 26.86 15.65 26.99C15.12 28.19 14.59 29.39 13.95 30.55L13.88 30.66C13.7864 30.6945 13.6836 30.6945 13.59 30.66L10.23 30.06C10.1485 30.0693 10.0666 30.0479 10 30C10.59 28.74 11.2 27.51 11.79 26.28Z" fill="#00FA86"/>
<path d="M12.66 32.7001C12.17 33.5501 11.66 34.3901 11.14 35.2101C10.34 35.1001 9.53999 34.9401 8.74999 34.8001L7.48999 34.5801C7.39999 34.5801 7.29999 34.5801 7.23999 34.4801L8.79999 32.0001C8.86539 31.9817 8.93459 31.9817 8.99999 32.0001L12.34 32.5801C12.44 32.5701 12.59 32.5601 12.66 32.7001Z" fill="#00F282"/>
<path d="M12.66 32.7C12.18 32.56 11.66 32.52 11.2 32.43C10.46 32.29 9.72005 32.18 8.99005 32.05C8.92494 32.041 8.86115 32.0242 8.80005 32L10 30L12.28 30.41L13.91 30.69C13.5274 31.3806 13.1102 32.0514 12.66 32.7Z" fill="#00F584"/>
<path d="M7.24 34.48L8.69 34.72L10.98 35.13C11.0112 35.1292 11.0421 35.136 11.07 35.15C11.0979 35.1639 11.1219 35.1845 11.14 35.21C10.73 35.9 10.32 36.59 9.86 37.21C9.7042 37.1548 9.54346 37.1146 9.38 37.09C8.32 36.88 7.27 36.65 6.21 36.48C6.1339 36.4824 6.05944 36.4576 6 36.41L7.24 34.48Z" fill="#00EA7E"/>
<path d="M6 36.4099C7 36.5799 8 36.7599 9 36.9799C9.23 37.0299 9.47 37.0599 9.7 37.0999C9.93 37.1399 9.92 37.0999 9.94 37.2499C9.65165 37.7393 9.33789 38.2133 9 38.6699C8.51 38.6199 8 38.5099 7.55 38.4299L5.29 37.9999C5.17 37.9999 5 37.9999 5 37.8799L6 36.4099Z" fill="#00E47C"/>
<path d="M4.99998 37.8799C5.60998 38.0599 6.23998 38.1199 6.85998 38.2399C7.47998 38.3599 8.15998 38.4699 8.80998 38.5799C8.84484 38.5803 8.87916 38.5886 8.91035 38.6041C8.94153 38.6197 8.96876 38.6422 8.98998 38.6699C8.68267 39.1297 8.35225 39.5736 7.99998 39.9999C7.76373 39.9919 7.52903 39.9583 7.29998 39.8999C6.29998 39.7199 5.29998 39.5499 4.29998 39.3599C4.17998 39.3599 4.04998 39.3599 3.97998 39.2099L4.99998 37.8799Z" fill="#00E07A"/>
<path d="M5.22004 44.0701L4.54004 45.1701C4.44004 45.2401 4.34004 45.1701 4.23004 45.1701L1.06004 44.6101C0.960039 44.6101 0.840039 44.6101 0.790039 44.4701C0.944298 44.0606 1.12124 43.66 1.32004 43.2701C1.35405 43.2526 1.39177 43.2434 1.43004 43.2434C1.46831 43.2434 1.50602 43.2526 1.54004 43.2701C2.65004 43.4901 3.77004 43.6601 4.88004 43.8701C5.00004 43.9001 5.19004 43.8601 5.22004 44.0701Z" fill="#00C86E"/>
<path d="M4.00001 39.25C4.46046 39.3721 4.92802 39.4656 5.40001 39.53L7.91001 40C7.93905 39.9893 7.97097 39.9893 8.00001 40C7.80404 40.3184 7.59037 40.6255 7.36001 40.92C7.27589 40.9497 7.18413 40.9497 7.10001 40.92L3.50001 40.28C3.45416 40.282 3.40849 40.273 3.36677 40.2539C3.32504 40.2348 3.28846 40.206 3.26001 40.17L4.00001 39.25Z" fill="#00DB77"/>
<path d="M5.22007 44.0699C5.22007 43.9899 5.12007 43.9899 5.05007 43.9799L1.94007 43.4299L1.32007 43.2899C1.46997 42.9706 1.6438 42.663 1.84007 42.3699C1.86951 42.355 1.90206 42.3472 1.93507 42.3472C1.96808 42.3472 2.00063 42.355 2.03007 42.3699L5.53007 42.9999C5.64007 42.9999 5.80007 42.9999 5.83007 43.1799L5.22007 44.0699Z" fill="#00CE70"/>
<path d="M3.28996 40.22L5.55996 40.63L7.38996 41C7.20812 41.2981 7.00421 41.5822 6.77996 41.85C5.86996 41.64 4.99996 41.52 3.99996 41.29C3.66996 41.21 3.32996 41.18 2.99996 41.11C2.89996 41.11 2.78996 41.11 2.70996 40.99C2.88233 40.7182 3.07629 40.4607 3.28996 40.22V40.22Z" fill="#00D875"/>
<path d="M0.789961 44.49C1.22152 44.6006 1.65885 44.6874 2.09996 44.75C2.90996 44.9 3.72996 45.03 4.53996 45.17L3.99996 46.12L0.669961 45.53C0.592591 45.5296 0.517988 45.5012 0.459961 45.45C0.538264 45.12 0.648795 44.7984 0.789961 44.49V44.49Z" fill="#00C36B"/>
<path d="M2.73999 41C3.25999 41.11 3.73999 41.17 4.29999 41.31C4.85999 41.45 5.21999 41.48 5.67999 41.56L6.67999 41.74C6.67999 41.74 6.75999 41.74 6.76999 41.82L6.26999 42.53C5.77999 42.53 5.26999 42.37 4.82999 42.29L2.59999 41.89C2.46412 41.8839 2.33556 41.8268 2.23999 41.73C2.38271 41.4711 2.55015 41.2266 2.73999 41V41Z" fill="#00D473"/>
<path d="M2.24009 41.73C2.96009 41.92 3.71009 42.01 4.45009 42.14L6.10009 42.43C6.13495 42.4304 6.16927 42.4387 6.20045 42.4543C6.23164 42.4698 6.25887 42.4923 6.28009 42.52C6.14614 42.7473 5.99574 42.9646 5.83009 43.17C5.6024 43.0499 5.34734 42.9913 5.09009 43C4.19009 42.82 3.28009 42.67 2.37009 42.5L1.84009 42.39C1.94299 42.1529 2.07755 41.9309 2.24009 41.73V41.73Z" fill="#00D172"/>
<path d="M0.0500488 47.6499V47.4599L0.150049 46.7799C0.191679 46.758 0.238011 46.7466 0.285049 46.7466C0.332087 46.7466 0.378419 46.758 0.420049 46.7799L3.23005 47.2799C3.33005 47.2799 3.43005 47.2799 3.49005 47.3999L3.18005 48.3299C3.12005 48.1099 2.93005 48.1899 2.80005 48.1599L0.120049 47.6499H0.0500488Z" fill="#00B765"/>
<path d="M0.460068 45.45L1.93007 45.68C2.55007 45.78 3.17007 45.8899 3.78007 46.0099C3.87007 46.0099 3.99007 46.0099 4.03007 46.1199C3.90007 46.3399 3.86007 46.6 3.71007 46.82L0.710068 46.22C0.570594 46.2133 0.435658 46.1683 0.320068 46.09C0.341161 45.8718 0.388158 45.657 0.460068 45.45V45.45Z" fill="#00BE69"/>
<path d="M0.279893 46.0901C0.719893 46.1701 1.16989 46.2301 1.59989 46.3301C2.19989 46.4701 2.81989 46.5601 3.42989 46.6901C3.51989 46.6901 3.66989 46.6901 3.70989 46.8201L3.47989 47.3701L0.139893 46.7801C0.165275 46.5463 0.21214 46.3153 0.279893 46.0901V46.0901Z" fill="#00BB67"/>
<path d="M17.2899 28.2L20.7499 28.83L21.0899 28.8899C20.2999 30.5699 19.5599 32.2599 18.6599 33.8899C18.6599 33.9699 18.5699 34.05 18.5199 34.13C18.2072 34.1036 17.8965 34.0569 17.5899 33.99L14.9399 33.5099C14.832 33.506 14.729 33.4635 14.6499 33.3899C15.2199 32.3899 15.7799 31.3 16.2999 30.2299L17.2899 28.2Z" fill="#00FB86"/>
<path d="M14.65 33.3799L17.91 33.9699C18.1211 33.9806 18.3281 34.0315 18.52 34.1199C18.11 34.9199 17.65 35.6899 17.2 36.4599C17.1 36.5299 17.01 36.4599 16.91 36.4599C15.78 36.2699 14.66 35.9799 13.52 35.8099C13.4386 35.8057 13.3611 35.7739 13.3 35.7199L14.65 33.3799Z" fill="#00F684"/>
<path d="M9.62988 41.27C10.0499 40.62 10.4899 39.97 10.9599 39.35C11.005 39.3279 11.0546 39.3164 11.1049 39.3164C11.1551 39.3164 11.2047 39.3279 11.2499 39.35C12.3899 39.56 13.5399 39.75 14.6799 39.97C14.7799 39.97 14.8999 39.97 14.9499 40.1C14.5699 40.71 14.1799 41.31 13.7899 41.91L13.6299 42.13C13.3171 42.1306 13.0063 42.0799 12.7099 41.98C11.9499 41.79 11.1799 41.7 10.4199 41.54L9.87988 41.44C9.77988 41.4 9.67988 41.38 9.62988 41.27Z" fill="#00EA7F"/>
<path d="M15 40.0801C14.54 39.9501 14.07 39.9001 13.6 39.8101L11.44 39.4201L11 39.3501L12.18 37.5101C12.2114 37.4957 12.2455 37.4883 12.28 37.4883C12.3145 37.4883 12.3486 37.4957 12.38 37.5101C13.54 37.7301 14.71 37.9201 15.87 38.1501C15.98 38.1501 16.13 38.1501 16.13 38.3301C15.72 38.9001 15.36 39.5101 15 40.0801Z" fill="#00F081"/>
<path d="M16.0899 38.3C15.9299 38.11 15.6899 38.16 15.4899 38.12C14.6599 37.95 13.8399 37.82 13.0099 37.67L12.1399 37.51C12.4999 36.9 12.8999 36.31 13.2999 35.73C13.9899 35.83 14.6799 35.95 15.3699 36.1L17.1999 36.46C16.8599 37.09 16.4799 37.7 16.0899 38.3Z" fill="#00F383"/>
<path d="M9.62993 41.27C10.0564 41.4039 10.4953 41.4944 10.9399 41.54C11.7899 41.7 12.6399 41.88 13.4799 42.05L13.6299 42.11C13.2499 42.68 12.8999 43.29 12.4699 43.83C11.5999 43.69 10.7399 43.52 9.86993 43.37L8.71993 43.17C8.60993 43.17 8.48993 43.17 8.42993 43.01L9.62993 41.27Z" fill="#00E47C"/>
<path d="M8.43 43C8.87556 43.1278 9.33021 43.2214 9.79 43.28C10.58 43.43 11.38 43.56 12.18 43.7C12.28 43.7 12.4 43.7 12.47 43.82C12.09 44.34 11.74 44.89 11.33 45.39C11.2889 45.4076 11.2447 45.4167 11.2 45.4167C11.1553 45.4167 11.1111 45.4076 11.07 45.39L7.6 44.8C7.47 44.8 7.32 44.8 7.25 44.62C7.62 44.07 8 43.54 8.43 43Z" fill="#00E07A"/>
<path d="M7.25 44.6201C7.56931 44.7468 7.907 44.8211 8.25 44.8401C9.07 45.0101 9.89 45.1401 10.72 45.2901L11.36 45.4001L10.27 46.9201C10.1756 46.95 10.0744 46.95 9.98 46.9201C8.82 46.7201 7.67 46.5201 6.52 46.3001C6.42011 46.2952 6.32488 46.2564 6.25 46.1901C6.547 45.6445 6.88112 45.1199 7.25 44.6201V44.6201Z" fill="#00DA76"/>
<path d="M6.22002 46.1799L9.44002 46.7699C9.7108 46.7948 9.97864 46.845 10.24 46.9199L9.45002 48.0699C9.11298 48.0553 8.77811 48.0084 8.45002 47.9299L5.78002 47.4399C5.73107 47.4435 5.68197 47.4354 5.63677 47.4162C5.59157 47.3971 5.55156 47.3675 5.52002 47.3299C5.72762 46.9315 5.96147 46.5473 6.22002 46.1799V46.1799Z" fill="#00D474"/>
<path d="M4.16992 50.22C4.30979 49.8093 4.47683 49.4084 4.66992 49.02C4.75317 48.9855 4.84668 48.9855 4.92992 49.02C5.98992 49.21 7.04992 49.39 8.09992 49.6C8.21992 49.6 8.36992 49.6 8.38992 49.8L7.74992 50.96C7.16992 50.9 6.59992 50.76 6.01992 50.67C5.43992 50.58 5.01992 50.48 4.49992 50.39C4.37992 50.33 4.24992 50.33 4.16992 50.22Z" fill="#00CA6E"/>
<path d="M12.09 54.8499L11.87 55.2599L11.51 55.8599C11.4729 55.8792 11.4318 55.8893 11.39 55.8893C11.3482 55.8893 11.3071 55.8792 11.27 55.8599L7.99999 55.3099C7.88999 55.3099 7.76999 55.3099 7.73999 55.1199C7.80128 54.8683 7.88841 54.6237 7.99999 54.3899C8.02824 54.3039 8.08024 54.2276 8.14999 54.1699V54.1699L9.84999 54.4499L12.09 54.8499Z" fill="#00C86E"/>
<path d="M8.38992 49.7601C8.17992 49.5501 7.89992 49.5801 7.63992 49.5401C6.82992 49.3701 6.00992 49.2401 5.18992 49.1001L4.66992 49.0001C4.80992 48.6901 4.94992 48.3801 5.11992 48.0801C5.22978 48.0404 5.35007 48.0404 5.45992 48.0801C6.53992 48.2701 7.61992 48.4901 8.69992 48.6801C8.78992 48.6801 8.91992 48.6801 8.93992 48.8301L8.38992 49.7601Z" fill="#00CE70"/>
<path d="M4.17009 50.22L6.42009 50.63L7.64009 50.86C7.69009 50.86 7.73009 50.86 7.75009 50.92L7.33009 51.77C7.29853 51.7894 7.26217 51.7997 7.22509 51.7997C7.188 51.7997 7.15165 51.7894 7.12009 51.77C6.12009 51.59 5.05009 51.42 4.02009 51.23C3.95009 51.23 3.88009 51.23 3.84009 51.14C3.92026 50.8234 4.03077 50.5153 4.17009 50.22V50.22Z" fill="#00C46C"/>
<path d="M8.93992 48.8501C8.61727 48.7327 8.28142 48.6555 7.93992 48.6201C7.14992 48.4501 6.34992 48.3201 5.54992 48.1801L5.16992 48.1001C5.29354 47.8329 5.43729 47.5755 5.59992 47.3301L7.86992 47.7401L9.34992 48.0001C9.37011 48.0016 9.38967 48.0078 9.40703 48.0182C9.42439 48.0287 9.43908 48.043 9.44992 48.0601C9.25992 48.3201 9.14992 48.6101 8.93992 48.8501Z" fill="#00D072"/>
<path d="M3.84012 51.1699L5.33012 51.4199L7.33012 51.7699L7.00012 52.6499C6.94012 52.6999 6.87012 52.6499 6.81012 52.6499C5.81012 52.4599 4.86012 52.3199 3.89012 52.1199C3.80018 52.1248 3.71005 52.1248 3.62012 52.1199C3.66263 51.7969 3.73631 51.4788 3.84012 51.1699V51.1699Z" fill="#00C16A"/>
<path d="M3.5799 52.0901C3.5799 52.0901 3.6499 52.0101 3.7299 52.0301L6.7899 52.6001H6.9599L6.6499 53.4701C6.53931 53.5053 6.4205 53.5053 6.3099 53.4701C5.4499 53.2901 4.5799 53.1601 3.7199 53.0001H3.3999C3.4353 52.6924 3.49549 52.3881 3.5799 52.0901V52.0901Z" fill="#00BC68"/>
<path d="M3.40007 52.9999C3.45007 52.9999 3.48007 52.9099 3.57007 52.9299L6.57007 53.4699H6.66007L6.48007 54.0999C6.49029 54.137 6.4901 54.1763 6.47952 54.2133C6.46893 54.2504 6.44837 54.2838 6.42007 54.3099C6.32106 54.3298 6.21908 54.3298 6.12007 54.3099L3.75007 53.8799C3.67849 53.8569 3.60266 53.8504 3.52822 53.8608C3.45377 53.8712 3.38262 53.8982 3.32007 53.9399C3.32294 53.625 3.34968 53.3108 3.40007 52.9999V52.9999Z" fill="#00B865"/>
<path d="M6.41007 54.3399C6.41007 54.2799 6.41007 54.1999 6.47007 54.1499H8.16007C8.14942 54.2297 8.11843 54.3055 8.07007 54.3699C7.56007 54.7699 7.07007 55.1599 6.54007 55.5699C6.46651 55.6323 6.38598 55.686 6.30007 55.7299C6.21007 55.7299 6.13007 55.7899 6.10007 55.6699C6.0931 55.4642 6.11669 55.2587 6.17007 55.0599C6.18747 54.8034 6.27008 54.5556 6.41007 54.3399Z" fill="#012A1F"/>
<path d="M6.41004 54.3401C6.33478 54.5828 6.27467 54.8299 6.23004 55.0801C6.14004 55.1601 6.03004 55.1301 5.92004 55.0801L3.50004 54.6701C3.41645 54.6668 3.33748 54.6309 3.28004 54.5701C3.24591 54.5071 3.22803 54.4367 3.22803 54.3651C3.22803 54.2935 3.24591 54.223 3.28004 54.1601V53.9701C3.28004 53.8101 3.40004 53.7901 3.57004 53.8201C4.47004 53.9901 5.37004 54.1401 6.27004 54.3001L6.41004 54.3401Z" fill="#00B464"/>
<path d="M3.29 54.1599V54.5699C3.30626 54.5896 3.31515 54.6144 3.31515 54.6399C3.31515 54.6655 3.30626 54.6902 3.29 54.7099V54.9099C3.21 54.9099 3.21 54.7699 3.16 54.7099L3 54.1599H3.29Z" fill="#02241C"/>
<path d="M9.49011 61.18C9.42011 61.27 9.49011 61.3901 9.44011 61.4901L8.21011 61.2901L6.69011 61.03C6.71978 60.8479 6.71978 60.6622 6.69011 60.48C6.56011 60.32 6.63011 60.1301 6.62011 59.9501C6.61803 59.9212 6.62337 59.8922 6.63562 59.866C6.64787 59.8397 6.66663 59.817 6.69011 59.8C7.02327 59.85 7.35369 59.9167 7.68011 60L9.52011 60.3301C9.55632 60.3219 9.5939 60.3219 9.63011 60.3301C9.62011 60.6601 9.49011 60.91 9.49011 61.18Z" fill="#00AE61"/>
<path d="M3.31006 54.7101V54.5701L6.00006 55.0701H6.23006C6.18539 55.2777 6.15532 55.4882 6.14006 55.7001C6.14006 55.8301 6.22006 55.9801 6.05006 56.0801L4.36006 55.7801C4.01927 55.752 3.68333 55.6815 3.36006 55.5701C3.32006 55.3923 3.32006 55.2078 3.36006 55.0301C3.34006 54.9301 3.38006 54.8101 3.31006 54.7101Z" fill="#00B062"/>
<path d="M6.04992 56.0899C6.12992 55.9699 6.04992 55.8299 6.13992 55.7099C6.22992 55.8099 6.27992 55.7099 6.32992 55.7099L7.66992 54.7099C7.78992 54.6199 7.87992 54.4599 8.06992 54.4699C8.01992 54.7099 7.84992 54.9199 7.78992 55.1599C7.72992 55.3999 7.78992 55.4799 7.61992 55.5899C7.34784 55.7411 7.09586 55.9259 6.86992 56.1399L6.25992 56.6199C6.25992 56.6699 6.12992 56.7299 6.05992 56.6699C5.98992 56.6099 6.05992 56.5499 6.05992 56.4799L6.04992 56.0899Z" fill="#013424"/>
<path d="M6.04991 56.4C6.04991 56.57 6.04991 56.62 6.22991 56.5C6.58991 56.21 6.94991 55.93 7.29991 55.63C7.38064 55.5499 7.4867 55.5004 7.59991 55.49C7.64991 55.73 7.46991 55.92 7.41991 56.13C7.40254 56.2107 7.36062 56.284 7.29991 56.34C6.93991 56.57 6.62991 56.87 6.29991 57.12L6.22991 57.18C6.22991 57.18 6.11991 57.28 6.04991 57.24C5.97991 57.2 6.04991 57.12 6.04991 57.04C6.02021 56.8277 6.02021 56.6123 6.04991 56.4V56.4Z" fill="#013B28"/>
<path d="M5.99989 57C5.99989 57.06 5.99989 57.14 5.99989 57.17C5.99989 57.2 6.07989 57.12 6.11989 57.09L7.04989 56.36C7.10921 56.3222 7.17304 56.2919 7.23989 56.27C7.24955 56.2867 7.25463 56.3057 7.25463 56.325C7.25463 56.3443 7.24955 56.3633 7.23989 56.38C7.13989 56.63 7.14989 56.93 6.94989 57.15C6.80989 57.33 6.58989 57.42 6.42989 57.59C6.40078 57.6153 6.36349 57.6293 6.32489 57.6293C6.2863 57.6293 6.24901 57.6153 6.21989 57.59L5.99989 57.62C5.89989 57.56 5.92989 57.46 5.91989 57.37C5.90989 57.28 5.92989 57.14 5.99989 57Z" fill="#01422B"/>
<path d="M7 57.1899L7.27 56.3099L7.36 56.1299C8.42 56.3599 9.5 56.5099 10.56 56.7099C10.71 56.7099 10.87 56.7099 10.98 56.8599V56.9999C10.8496 57.204 10.7423 57.422 10.66 57.6499L10.52 57.8799C9.87 57.7599 9.21 57.6499 8.52 57.5099C8.09 57.4199 7.66 57.3299 7.23 57.2599C7.1558 57.2291 7.07877 57.2056 7 57.1899V57.1899Z" fill="#00BF69"/>
<path d="M6.27002 57.69C6.38002 57.69 6.45002 57.69 6.52002 57.56C6.65818 57.4212 6.82095 57.3093 7.00002 57.23C6.94476 57.4266 6.90464 57.6272 6.88002 57.83H6.75002C6.58296 57.8123 6.4204 57.7649 6.27002 57.69V57.69Z" fill="#034D31"/>
<path d="M9.31008 63.0001V63.3701C9.24983 63.1883 9.24983 62.9919 9.31008 62.8101V63.0001Z" fill="#014A2F"/>
<path d="M10.9999 56.8601L8.99991 56.5001L7.59991 56.2501C7.52991 56.2501 7.41991 56.2501 7.40991 56.1301L7.62991 55.4901L7.81991 55.0801C7.81991 55.2601 7.96991 55.2301 8.05991 55.2501L9.61991 55.5301L11.5399 55.8601L11.3899 56.2201L10.9999 56.8601Z" fill="#00C36B"/>
<path d="M6.29004 60H6.60004V60.55V60.75C6.51004 60.75 6.54004 60.6 6.47004 60.55L6.29004 60Z" fill="#02241D"/>
<path fill-rule="evenodd" clip-rule="evenodd" d="M72.9099 56.3901C69.0499 56.3901 66.2299 56.5501 63.0399 53.8301C61.9125 52.8821 61.0061 51.6989 60.3842 50.3636C59.7623 49.0283 59.44 47.5731 59.4399 46.1001V13.8201H65.0799V46.4301C65.0799 50.9501 69.0799 51.8201 72.9099 51.5101V56.3901Z" fill="white"/>
<path fill-rule="evenodd" clip-rule="evenodd" d="M76.49 27H81.88V45.17C81.88 49.23 85.06 51.51 88.88 51.51C92.7 51.51 95.74 49.11 95.74 45.17V27H101.13V43.64C101.13 51.91 97.54 56.4 88.74 56.4C80.74 56.4 76.5 52.23 76.5 44.4L76.49 27Z" fill="white"/>
<path fill-rule="evenodd" clip-rule="evenodd" d="M106.76 56H112.09V36.7C112.09 35.2413 112.669 33.8424 113.701 32.8109C114.732 31.7795 116.131 31.2 117.59 31.2C119.049 31.2 120.448 31.7795 121.479 32.8109C122.511 33.8424 123.09 35.2413 123.09 36.7V56H128.54V36.7C128.54 35.2413 129.119 33.8424 130.151 32.8109C131.182 31.7795 132.581 31.2 134.04 31.2C135.499 31.2 136.898 31.7795 137.929 32.8109C138.961 33.8424 139.54 35.2413 139.54 36.7V56H144.74V37.32C144.732 34.4555 143.591 31.7105 141.565 29.6849C139.54 27.6594 136.795 26.5179 133.93 26.51V26.51C132.385 26.5115 130.859 26.8454 129.454 27.489C128.049 28.1326 126.8 29.0708 125.79 30.24C124.777 29.0716 123.526 28.134 122.12 27.4905C120.714 26.8471 119.186 26.5127 117.64 26.51V26.51C114.775 26.5179 112.03 27.6594 110.005 29.6849C107.979 31.7105 106.838 34.4555 106.83 37.32L106.76 56Z" fill="white"/>
<path d="M155.96 26.95H150.32V55.9599H155.96V26.95Z" fill="white"/>
<path fill-rule="evenodd" clip-rule="evenodd" d="M153.14 17.1199C153.783 17.1199 154.412 17.3108 154.947 17.6683C155.481 18.0259 155.898 18.534 156.143 19.1285C156.389 19.7229 156.453 20.3769 156.327 21.0076C156.2 21.6383 155.89 22.2174 155.434 22.6715C154.979 23.1256 154.399 23.4344 153.768 23.5587C153.137 23.6829 152.483 23.6171 151.889 23.3696C151.296 23.1221 150.789 22.704 150.433 22.1682C150.077 21.6324 149.888 21.0031 149.89 20.3599C149.89 19.9336 149.974 19.5114 150.137 19.1177C150.301 18.7239 150.541 18.3663 150.842 18.0653C151.144 17.7643 151.503 17.5259 151.897 17.3636C152.291 17.2014 152.714 17.1186 153.14 17.1199" fill="#00FF89"/>
</g>
<defs>
<clipPath id="clip0_279_1816">
<rect width="156.38" height="69.57" fill="white"/>
</clipPath>
</defs>
</svg>
